<?xml version="1.0" encoding="UTF-8"?>
<svg xmlns="http://www.w3.org/2000/svg" xmlns:xlink="http://www.w3.org/1999/xlink" viewBox="0 0 500 500">
  <defs>
    <style>
      .cls-1 {
        fill: url(#Gradiente_sem_nome_23-5);
      }

      .cls-2 {
        fill: #341d49;
      }

      .cls-3 {
        fill: url(#Gradiente_sem_nome_23-4);
      }

      .cls-4 {
        fill: url(#Gradiente_sem_nome_11);
      }

      .cls-5 {
        fill: url(#Gradiente_sem_nome_23);
      }

      .cls-6 {
        fill: #442659;
      }

      .cls-7 {
        fill: url(#Gradiente_sem_nome_23-2);
      }

      .cls-8 {
        fill: #eea699;
        mix-blend-mode: multiply;
      }

      .cls-9 {
        isolation: isolate;
      }

      .cls-10 {
        fill: #f087a9;
      }

      .cls-11 {
        fill: #fcfcfc;
      }

      .cls-12 {
        fill: url(#Gradiente_sem_nome_23-3);
      }

      .cls-13 {
        fill: #603a8e;
      }
    </style>
    <linearGradient id="Gradiente_sem_nome_23" data-name="Gradiente sem nome 23" x1="149.23" y1="379.3" x2="149.23" y2="294.59" gradientUnits="userSpaceOnUse">
      <stop offset="0" stop-color="#d7428f"/>
      <stop offset=".53" stop-color="#603a8e"/>
    </linearGradient>
    <linearGradient id="Gradiente_sem_nome_23-2" data-name="Gradiente sem nome 23" x1="347.25" x2="347.25" y2="294.6" xlink:href="#Gradiente_sem_nome_23"/>
    <linearGradient id="Gradiente_sem_nome_23-3" data-name="Gradiente sem nome 23" x1="121.33" y1="322.88" x2="121.33" y2="259.15" xlink:href="#Gradiente_sem_nome_23"/>
    <linearGradient id="Gradiente_sem_nome_23-4" data-name="Gradiente sem nome 23" x1="246.42" y1="384.78" x2="246.42" y2="305.48" xlink:href="#Gradiente_sem_nome_23"/>
    <linearGradient id="Gradiente_sem_nome_11" data-name="Gradiente sem nome 11" x1="253.86" y1="318.37" x2="253.86" y2="115.87" gradientUnits="userSpaceOnUse">
      <stop offset="0" stop-color="#603a8e"/>
      <stop offset="1" stop-color="#4c266f"/>
    </linearGradient>
    <linearGradient id="Gradiente_sem_nome_23-5" data-name="Gradiente sem nome 23" x1="383.17" y1="329.5" x2="383.17" y2="266.03" xlink:href="#Gradiente_sem_nome_23"/>
  </defs>
  <g class="cls-9">
    <g id="Camada_1">
      <g>
        <path class="cls-13" d="M321.63,157.46c2.74,0,4.96-1.92,4.96-4.29s-2.23-4.29-4.96-4.29-4.96,1.92-4.96,4.29,2.23,4.29,4.96,4.29Z"/>
        <path class="cls-13" d="M340.25,161.03c2.74,0,4.96-1.92,4.96-4.29s-2.23-4.29-4.96-4.29-4.96,1.92-4.96,4.29,2.23,4.29,4.96,4.29Z"/>
        <ellipse class="cls-13" cx="328.09" cy="168.32" rx="4.96" ry="4.29"/>
        <path class="cls-11" d="M294.21,227.63c2.52.01,4.95-.77,7.56-1.6,2-.63,4.07-1.28,6.2-1.58,5.69-.79,11.71,1.19,16.5,5.43.5.44.99,1.01,1.51,1.61.72.83,2.21,2.57,2.79,2.33,1.08-.44,1.57-3.13,1.22-6.71-.74-7.56-3.13-14.82-6.9-21.02-7.06-4.58-13.62-9.96-19.49-16.01-.11-.11-.18-.25-.25-.39-.09-.01-.18-.03-.27-.06-3.64-1.17-10.59-2.5-16.27,1.69-5.79,4.26-8.83,13.72-7.07,21.99,1.73,8.14,7.95,14.28,14.47,14.3Z"/>
        <path class="cls-10" d="M311.65,255.13c-8.1,0-14.93,3.59-14.93,7.84s6.84,7.84,14.93,7.84,14.94-3.59,14.94-7.84-6.84-7.84-14.94-7.84Z"/>
        <path class="cls-11" d="M173.91,227.13c-.35,3.57.14,6.27,1.22,6.71.58.23,2.07-1.5,2.79-2.33.52-.6,1.01-1.18,1.51-1.62,4.79-4.24,10.81-6.22,16.5-5.43,2.14.3,4.21.95,6.21,1.58,2.6.82,5.05,1.6,7.53,1.6h.03c6.52-.02,12.74-6.17,14.47-14.3,1.76-8.27-1.28-17.73-7.07-21.99-5.68-4.18-12.63-2.85-16.27-1.69-.09.03-.18.05-.27.06-.07.14-.14.27-.25.39-5.87,6.05-12.42,11.43-19.49,16.01-3.77,6.2-6.16,13.46-6.9,21.02Z"/>
        <path class="cls-10" d="M195.64,255.06c-8.1,0-14.94,3.59-14.94,7.84s6.84,7.84,14.94,7.84,14.94-3.59,14.94-7.84-6.84-7.84-14.94-7.84Z"/>
        <path class="cls-5" d="M192.28,351.4c1.24,6.53,4.39,12.59,8.99,17.81-16.97,5.33-35.15,10.09-53.78,10.09h-.37c-9.95-.03-34.37-2.06-46.12-20.12-7.21-11.08-7.06-26.3-.74-38.87h0c2.41-4.79,5.7-9.19,9.83-12.83,13.58-11.98,34.47-15.98,54.52-10.43.77.21,1.54.44,2.31.68.02.01.04.01.07.02,9.91,3.1,19.65,8.39,29.07,15.76.1.48.42.91.91,1.11.3.12.61.22.91.34,1.69,1.38,3.37,2.82,5.03,4.33-7.03,7.18-11.22,16.13-11.22,25.84,0,2.13.2,4.22.59,6.27Z"/>
        <path class="cls-7" d="M396.84,359.18c-11.75,18.06-36.17,20.09-46.12,20.12h-.37c-20.25,0-40.3-5.73-57.73-11.35,3.94-4.82,6.67-10.3,7.85-16.17.45-2.17.68-4.39.68-6.65,0-8.6-3.29-16.61-8.94-23.32,13.08-12.51,26.87-20.85,41.01-24.76,3.57-.99,7.16-1.66,10.74-2.05.08,0,.16-.01.24-.03,16.43-1.74,32.44,2.71,43.54,12.51,2.86,2.52,5.32,5.4,7.35,8.53,8.67,13.24,9.8,30.79,1.75,43.17Z"/>
        <path class="cls-12" d="M160.99,293.09c-17.32-3.63-34.87-.56-47.91,8.29-.55.37-1.1.76-1.63,1.16-1.15.84-2.27,1.74-3.34,2.69-2.87,2.53-5.37,5.41-7.46,8.52-1.94,2.87-3.54,5.94-4.8,9.13-.82-.77-1.63-1.56-2.38-2.38-9.43-10.27-13.66-25.16-11.04-38.85.79-4.15,2.44-8.48,4.89-12.23.14-.21.28-.42.41-.62.07-.09.12-.17.18-.25,3.14-4.45,7.46-7.94,12.83-9.03,6.22-1.26,12.88.89,18.63,3,7.5,2.76,14.97,5.89,22.21,9.3,5.33,7.69,11.84,14.84,19.41,21.27Z"/>
        <path class="cls-3" d="M298.15,345.13c0,2.26-.25,4.47-.73,6.62-4.12,18.72-25.42,33.03-51,33.03s-47.43-14.68-51.15-33.75c-.02-.04-.02-.08-.03-.12-.04-.2-.08-.4-.1-.6-.3-1.69-.45-3.42-.45-5.18,0-21.87,23.21-39.65,51.73-39.65,17.41,0,32.83,6.63,42.21,16.77.06.22.17.43.34.61.15.16.33.27.52.34,5.47,6.29,8.66,13.83,8.66,21.93Z"/>
        <path class="cls-4" d="M253.86,115.87c-69.65,0-126.31,46.33-126.31,103.28,0,21.97,8.66,43.3,24.3,60.84,4.78,5.38,10.21,10.39,16.25,14.97,10.71,3.38,21.2,9.21,31.3,17.37,2.65,1.04,5.34,2.01,8.06,2.88,4.61-3.66,10.08-6.66,16.12-8.84,6.95-2.49,14.69-3.89,22.84-3.89,10.77,0,20.82,2.44,29.29,6.65,5.04,2.5,9.53,5.63,13.28,9.24,1.16-.28,2.31-.56,3.42-.85,12.77-11.69,26.21-19.54,40.01-23.36,3.62-1,7.26-1.7,10.88-2.11,6.54-5.36,12.27-11.21,17.15-17.43.07-.15.17-.28.3-.39,1.42-1.83,2.76-3.7,4.03-5.6,10.05-14.99,15.39-31.9,15.39-49.48,0-56.95-56.67-103.28-126.31-103.28ZM165.7,155.25c4.39,0,7.96,3.27,7.96,7.28s-3.57,7.29-7.96,7.29-7.97-3.27-7.97-7.29,3.58-7.28,7.97-7.28ZM177.71,262.9c0-6.08,7.87-10.84,17.93-10.84s17.94,4.76,17.94,10.84-7.88,10.84-17.94,10.84-17.93-4.77-17.93-10.84ZM227.1,213.96c-2.02,9.48-9.5,16.65-17.4,16.67-2.98.04-5.76-.87-8.47-1.73-1.97-.62-3.83-1.21-5.71-1.47-4.83-.67-9.97,1.05-14.11,4.71-.34.3-.77.8-1.22,1.32-1.27,1.48-2.93,3.41-4.94,3.41-.4,0-.82-.08-1.25-.26-3.21-1.3-3.44-6.03-3.07-9.77.79-8.13,3.38-15.93,7.49-22.58.01-.02.03-.03.04-.05,0,0,0-.02.02-.03.11-.16.25-.29.41-.39,6.99-4.5,13.47-9.81,19.26-15.78.24-.24.54-.37.86-.41.17-.37.48-.67.9-.8,7.22-2.32,13.95-1.56,18.96,2.13,6.67,4.92,10.21,15.67,8.23,25.03ZM269.12,251.53c-.19.08-.39.12-.58.12-.59,0-1.14-.35-1.38-.93-2-4.78-7.02-8.2-12.21-8.31-5.14-.11-10.34,3.09-12.54,7.79-.35.75-1.24,1.08-1.99.72-.75-.35-1.07-1.24-.72-1.99,2.64-5.64,8.78-9.52,15-9.52h.32c6.33.13,12.46,4.31,14.9,10.16.32.76-.04,1.64-.8,1.96ZM340.25,149.46c4.39,0,7.96,3.27,7.96,7.29s-3.57,7.28-7.96,7.28-7.96-3.26-7.96-7.28,3.57-7.29,7.96-7.29ZM336.05,168.32c0,4.02-3.57,7.29-7.96,7.29s-7.96-3.27-7.96-7.29,3.57-7.29,7.96-7.29,7.96,3.27,7.96,7.29ZM321.63,145.89c4.39,0,7.96,3.26,7.96,7.28s-3.57,7.29-7.96,7.29-7.96-3.27-7.96-7.29,3.57-7.28,7.96-7.28ZM285.03,188.93c5.01-3.69,11.74-4.45,18.96-2.13.42.13.73.43.9.8.32.04.62.17.86.41,5.79,5.97,12.27,11.28,19.26,15.77.16.11.3.24.42.41,0,0,.01.01.01.02.01.01.03.03.04.05,4.11,6.64,6.7,14.45,7.5,22.58.36,3.74.13,8.47-3.07,9.77-.44.18-.86.26-1.26.26-2.01,0-3.67-1.93-4.94-3.41-.45-.52-.88-1.02-1.22-1.32-4.14-3.66-9.28-5.38-14.1-4.71-1.89.26-3.75.85-5.72,1.47-2.7.85-5.49,1.73-8.43,1.73h-.04c-7.9-.02-15.38-7.19-17.39-16.67-1.99-9.36,1.55-20.12,8.22-25.03ZM329.59,262.97c0,6.07-7.88,10.84-17.94,10.84s-17.93-4.77-17.93-10.84,7.88-10.84,17.93-10.84,17.94,4.76,17.94,10.84Z"/>
        <path class="cls-1" d="M406.13,327.38c-.67.73-1.37,1.43-2.1,2.12-2-8.58-6.43-16.8-13.04-23.11-.41-.39-.83-.78-1.26-1.16-10.71-9.45-25.68-14.2-41.33-13.58,5.38-4.73,10.18-9.79,14.36-15.13,5.73-2.57,11.6-4.96,17.47-7.11,5.75-2.12,12.4-4.26,18.62-3,3.77.77,7.02,2.7,9.7,5.32,4.54,4.43,7.48,10.81,8.62,16.8,2.62,13.69-1.62,28.58-11.04,38.85Z"/>
        <path class="cls-13" d="M165.7,166.82c2.74,0,4.96-1.92,4.96-4.29s-2.23-4.29-4.96-4.29-4.96,1.92-4.96,4.29,2.23,4.29,4.96,4.29Z"/>
      </g>
      <g id="Camada_2">
        <path class="cls-6" d="M420.12,287.97c-2.01-10.51-9.18-22.17-20.67-24.5-6.99-1.42-14.12.87-20.25,3.12-4.3,1.58-8.61,3.29-12.86,5.1,10.99-15.83,16.83-33.81,16.83-52.55,0-58.6-58.01-106.28-129.31-106.28s-129.31,47.67-129.31,106.28c0,16.8,4.89,33.22,13.95,47.96-5.95-2.68-12.01-5.16-18.1-7.4-6.14-2.25-13.27-4.54-20.25-3.12-11.49,2.33-18.66,13.99-20.67,24.5-2.79,14.61,1.72,30.49,11.78,41.44,1.09,1.19,2.28,2.33,3.52,3.42-3.76,11.88-2.77,24.91,3.71,34.87,12.55,19.29,38.19,21.45,48.62,21.49.13,0,.25,0,.38,0,19.55,0,38.49-5.1,56.09-10.68,10.03,9.83,25.5,16.16,42.84,16.16s34.07-6.84,44.05-17.37c17.93,5.81,38.72,11.89,59.89,11.89.12,0,.25,0,.37,0,10.44-.04,36.08-2.2,48.62-21.49,5.23-8.03,6.87-18.06,5.35-27.88,1.28-1.12,2.51-2.3,3.64-3.53,10.06-10.96,14.57-26.84,11.78-41.44ZM253.86,115.87c69.65,0,126.31,46.33,126.31,103.28,0,19.81-6.77,38.75-19.42,55.08-.12.11-.22.24-.3.39-4.87,6.23-10.6,12.07-17.14,17.43-3.63.41-7.27,1.11-10.88,2.11-13.8,3.82-27.24,11.68-40.01,23.36-1.12.29-2.26.58-3.42.85-10.04-9.68-25.39-15.89-42.57-15.89-15.24,0-29.03,4.88-38.96,12.74-2.71-.88-5.41-1.85-8.06-2.88-10.1-8.16-20.59-14-31.3-17.38-25.77-19.5-40.55-47.12-40.55-75.81,0-56.95,56.66-103.28,126.31-103.28ZM93.47,320.5c-9.43-10.27-13.66-25.16-11.04-38.85,1.82-9.53,8.19-20.07,18.32-22.12,6.21-1.26,12.87.89,18.62,3,7.5,2.75,14.97,5.88,22.21,9.3,5.33,7.68,11.84,14.84,19.41,21.27-19.63-4.11-39.55.38-52.88,12.14-5.52,4.87-9.65,11.01-12.25,17.65-.83-.77-1.63-1.56-2.39-2.38ZM147.49,379.3c-.12,0-.25,0-.37,0-9.95-.03-34.37-2.06-46.12-20.12-9.95-15.3-5.87-38.49,9.09-51.7,13.58-11.98,34.47-15.98,54.52-10.43.77.21,1.54.44,2.3.68.02,0,.05.01.07.02,9.91,3.1,19.65,8.38,29.08,15.76.09.48.42.91.91,1.11.3.12.61.23.91.35,1.69,1.38,3.37,2.82,5.03,4.33-7.03,7.18-11.22,16.13-11.22,25.84,0,8.93,3.54,17.22,9.58,24.08-16.97,5.33-35.15,10.1-53.79,10.1ZM246.42,384.78c-28.52,0-51.73-17.79-51.73-39.65s23.21-39.65,51.73-39.65c17.41,0,32.83,6.63,42.21,16.77.07.22.17.44.35.62.15.16.33.27.52.34,5.46,6.28,8.66,13.82,8.66,21.93,0,21.86-23.21,39.65-51.73,39.65ZM396.84,359.18c-11.75,18.06-36.17,20.09-46.12,20.12-.12,0-.24,0-.36,0-20.26,0-40.3-5.73-57.73-11.35,5.39-6.6,8.53-14.43,8.53-22.82s-3.29-16.61-8.94-23.31c13.08-12.52,26.87-20.85,41.01-24.77,3.57-.99,7.16-1.66,10.73-2.05.08,0,.16-.01.25-.03,16.43-1.74,32.43,2.71,43.54,12.51,14.97,13.21,19.05,36.4,9.09,51.7ZM406.13,327.38c-.66.72-1.37,1.43-2.09,2.11-2.12-9.12-6.99-17.81-14.3-24.27-10.71-9.45-25.68-14.2-41.33-13.58,5.38-4.73,10.18-9.79,14.36-15.13,5.73-2.57,11.6-4.96,17.47-7.12,5.75-2.11,12.4-4.26,18.62-3,10.12,2.06,16.5,12.59,18.32,22.12,2.62,13.69-1.61,28.58-11.04,38.85Z"/>
        <path class="cls-10" d="M195.64,252.06c-10.06,0-17.94,4.76-17.94,10.84s7.88,10.84,17.94,10.84,17.94-4.76,17.94-10.84-7.88-10.84-17.94-10.84ZM195.64,270.74c-8.1,0-14.94-3.59-14.94-7.84s6.84-7.84,14.94-7.84,14.94,3.59,14.94,7.84-6.84,7.84-14.94,7.84Z"/>
        <path class="cls-10" d="M311.65,252.13c-10.06,0-17.93,4.76-17.93,10.84s7.88,10.84,17.93,10.84,17.94-4.76,17.94-10.84-7.88-10.84-17.94-10.84ZM311.65,270.81c-8.1,0-14.93-3.59-14.93-7.84s6.84-7.84,14.93-7.84,14.94,3.59,14.94,7.84-6.84,7.84-14.94,7.84Z"/>
        <path class="cls-13" d="M165.7,169.82c4.39,0,7.96-3.27,7.96-7.29s-3.57-7.29-7.96-7.29-7.96,3.27-7.96,7.29,3.57,7.29,7.96,7.29ZM165.7,158.25c2.74,0,4.96,1.92,4.96,4.29s-2.23,4.29-4.96,4.29-4.96-1.92-4.96-4.29,2.23-4.29,4.96-4.29Z"/>
        <path class="cls-13" d="M321.63,160.46c4.39,0,7.96-3.27,7.96-7.29s-3.57-7.29-7.96-7.29-7.96,3.27-7.96,7.29,3.57,7.29,7.96,7.29ZM321.63,148.89c2.74,0,4.96,1.92,4.96,4.29s-2.23,4.29-4.96,4.29-4.96-1.92-4.96-4.29,2.23-4.29,4.96-4.29Z"/>
        <path class="cls-13" d="M340.25,164.03c4.39,0,7.96-3.27,7.96-7.29s-3.57-7.29-7.96-7.29-7.96,3.27-7.96,7.29,3.57,7.29,7.96,7.29ZM340.25,152.46c2.74,0,4.96,1.92,4.96,4.29s-2.23,4.29-4.96,4.29-4.96-1.92-4.96-4.29,2.23-4.29,4.96-4.29Z"/>
        <path class="cls-13" d="M328.09,161.03c-4.39,0-7.96,3.27-7.96,7.29s3.57,7.29,7.96,7.29,7.96-3.27,7.96-7.29-3.57-7.29-7.96-7.29ZM328.09,172.61c-2.74,0-4.96-1.92-4.96-4.29s2.23-4.29,4.96-4.29,4.96,1.92,4.96,4.29-2.23,4.29-4.96,4.29Z"/>
        <path class="cls-11" d="M178.42,204.26c-4.11,6.65-6.7,14.46-7.5,22.58-.37,3.74-.13,8.47,3.07,9.78.43.18.85.25,1.26.25,2.01,0,3.67-1.93,4.94-3.41.45-.52.88-1.02,1.22-1.32,4.14-3.66,9.28-5.37,14.1-4.71,1.89.26,3.75.85,5.71,1.47,2.71.86,5.49,1.77,8.47,1.73,7.9-.02,15.38-7.19,17.39-16.68,1.99-9.35-1.55-20.11-8.23-25.03-5.01-3.69-11.74-4.44-18.96-2.13-.42.13-.73.43-.9.8-.31.05-.62.17-.86.41-5.79,5.97-12.27,11.28-19.26,15.78,0,0,0,0,0,0-.16.1-.3.23-.41.4,0,0-.01.02-.02.02-.01.02-.03.03-.04.05ZM200.3,190.1c.11-.12.18-.25.25-.39.09-.01.18-.03.27-.06,3.64-1.17,10.59-2.5,16.27,1.69,5.79,4.26,8.83,13.72,7.07,21.99-1.73,8.14-7.95,14.28-14.47,14.3h-.03c-2.48,0-4.93-.77-7.53-1.6-2-.63-4.07-1.28-6.21-1.58-5.69-.79-11.71,1.19-16.5,5.43-.5.44-.99,1.01-1.51,1.62-.72.83-2.2,2.56-2.79,2.33-1.08-.44-1.57-3.13-1.22-6.71.74-7.56,3.13-14.82,6.9-21.02,7.07-4.58,13.62-9.96,19.49-16.01Z"/>
        <path class="cls-11" d="M294.2,230.63h.04c2.94,0,5.73-.88,8.43-1.73,1.97-.62,3.83-1.21,5.71-1.47,4.83-.67,9.97,1.05,14.1,4.71.34.3.77.8,1.22,1.32,1.27,1.48,2.93,3.41,4.94,3.41.4,0,.82-.08,1.26-.25,3.2-1.3,3.44-6.04,3.07-9.78-.8-8.13-3.39-15.93-7.5-22.58-.01-.02-.03-.03-.04-.05,0,0,0-.01-.01-.02-.12-.17-.26-.3-.42-.41-6.99-4.5-13.46-9.8-19.25-15.77-.24-.25-.55-.37-.86-.42-.17-.37-.48-.67-.9-.8-7.22-2.32-13.96-1.56-18.96,2.13-6.67,4.92-10.21,15.68-8.22,25.03,2.01,9.49,9.49,16.66,17.39,16.68ZM286.81,191.34c5.68-4.19,12.63-2.85,16.27-1.69.09.03.18.05.27.06.07.14.14.27.25.39,5.87,6.05,12.42,11.43,19.49,16.01,3.77,6.2,6.16,13.46,6.9,21.02.35,3.57-.14,6.27-1.22,6.71-.58.23-2.07-1.5-2.79-2.33-.52-.6-1.01-1.18-1.51-1.61-4.79-4.24-10.81-6.22-16.5-5.43-2.14.3-4.2.95-6.2,1.58-2.61.82-5.04,1.61-7.56,1.6-6.52-.02-12.74-6.17-14.47-14.3-1.76-8.27,1.28-17.73,7.07-21.99Z"/>
        <path class="cls-2" d="M240.42,250.92c.75.35,1.64.03,1.99-.72,2.2-4.7,7.39-7.9,12.54-7.79,5.19.11,10.2,3.53,12.2,8.31.24.58.8.92,1.38.92.19,0,.39-.04.58-.12.76-.32,1.12-1.2.81-1.96-2.44-5.85-8.57-10.02-14.91-10.16-.1,0-.21,0-.32,0-6.23,0-12.36,3.88-15,9.52-.35.75-.03,1.64.72,1.99Z"/>
        <path class="cls-8" d="M176.31,269.22c-1.06-1.06-1.82-2.53-1.83-4.09s.86-3.14,2.22-3.67c2.01-.77,4.05.81,5.89,1.97,3.83,2.41,8.41,3.18,12.83,2.85s8.72-1.7,12.89-3.33c1.67-.65,3.64-1.32,5.14-.29,1.51,1.04,1.75,3.4,1.15,5.21-1.29,3.86-5.23,5.8-8.85,7.08-5.49,1.94-11.74,1.79-17.43.75s-10.82-3.4-12.71-9.28"/>
        <path class="cls-8" d="M293.27,269.22c-1.06-1.06-1.82-2.53-1.83-4.09s.86-3.14,2.22-3.67c2.01-.77,4.05.81,5.89,1.97,3.83,2.41,8.41,3.18,12.83,2.85s8.72-1.7,12.89-3.33c1.67-.65,3.64-1.32,5.14-.29,1.51,1.04,1.75,3.4,1.15,5.21-1.29,3.86-5.23,5.8-8.85,7.08-5.49,1.94-11.74,1.79-17.43.75s-10.82-3.4-12.71-9.28"/>
        <path class="cls-8" d="M254.46,246.17c4.88.84,9.28,3.35,13.57,5.82.92-4.25-2.19-8.6-6.19-10.3s-8.59-1.25-12.79-.14c-2.16.57-4.35,1.34-5.98,2.88-.68.65-2.79,3.47-2,4.52.72.96,2.48-1,3.41-1.48,3.03-1.56,6.64-1.88,9.97-1.31Z"/>
        <path class="cls-8" d="M176.97,232.52c4.84-4.51,10.37-9.19,16.98-9.32,6.93-.14,13.76,4.85,20.36,2.72,5.32-1.71,8.23-7.39,12.83-10.56.68,5.03-1.15,10.33-4.79,13.86s-8.99,5.21-13.99,4.39c-5.12-.84-9.97-4.12-15.08-3.2-3.41.61-6.18,3-8.87,5.18s-5.75,4.34-9.21,4.35c-1.74,0-6.75-2.09-4.72-4.69.62-.79,1.74-.44,2.6-.59,1.64-.28,2.68-1.02,3.9-2.15Z"/>
        <path class="cls-8" d="M326.57,231.98c-4.84-4.51-10.37-9.19-16.98-9.32-6.93-.14-13.76,4.85-20.36,2.72-5.32-1.71-8.23-7.39-12.83-10.56-.68,5.03,1.15,10.33,4.79,13.86s8.99,5.21,13.99,4.39c5.12-.84,9.97-4.12,15.08-3.2,3.41.61,6.18,3,8.87,5.18s5.75,4.34,9.21,4.35c1.74,0,6.75-2.09,4.72-4.69-.62-.79-1.74-.44-2.6-.59-1.64-.28-2.68-1.02-3.9-2.15Z"/>
        <path class="cls-8" d="M198.49,188.16c2.72-3.05,5.32-6.76,4.94-10.83-7.72,9.02-17.08,16.63-27.49,22.35-2.84,1.56-6.16,3.1-8.18,5.73s1.1,2.73,3.2,2.18c6.57-1.71,13.28-6.66,18.49-10.85,3.24-2.6,6.27-5.48,9.03-8.58Z"/>
        <path class="cls-8" d="M305.55,188.16c-2.72-3.05-5.32-6.76-4.94-10.83,7.72,9.02,17.08,16.63,27.49,22.35,2.84,1.56,6.16,3.1,8.18,5.73s-1.1,2.73-3.2,2.18c-6.57-1.71-13.28-6.66-18.49-10.85-3.24-2.6-6.27-5.48-9.03-8.58Z"/>
        <path class="cls-8" d="M183.27,294.63c13.19,4.69,26.62,8.89,40.31,11.74-6.04,2.18-11.51,5.18-16.12,8.84-2.72-.87-5.41-1.84-8.06-2.88-10.1-8.16-20.59-13.99-31.3-17.37-6.04-4.58-11.47-9.59-16.25-14.97.03.02.06.04.09.06,2.84,1.9,5.81,3.62,8.85,5.19,7.22,3.75,14.83,6.67,22.48,9.39Z"/>
        <path class="cls-8" d="M364.78,268.63c-1.27,1.9-2.61,3.77-4.03,5.6-.13.11-.23.24-.3.39-4.88,6.22-10.61,12.07-17.15,17.43-3.62.41-7.26,1.11-10.88,2.11-13.8,3.82-27.24,11.67-40.01,23.36-1.11.29-2.26.57-3.42.85-3.75-3.61-8.24-6.74-13.28-9.24,6.6-.86,13.11-2.25,19.46-4.26,25-7.89,46.07-24.7,69.61-36.24Z"/>
        <path class="cls-8" d="M86.79,266.19c-.05-.31-.08-.61-.11-.92l.36,1.19c-.08-.1-.16-.19-.25-.27Z"/>
        <path class="cls-8" d="M87.73,268.8l-.69-2.34c.5.6.82,1.31.87,2.09.02.24.01.49-.03.74l-.15-.49Z"/>
        <path class="cls-8" d="M95.85,322.88c-.82-.77-1.63-1.56-2.38-2.38-9.43-10.27-13.66-25.16-11.04-38.85.79-4.15,2.44-8.48,4.89-12.23,2.83,13.91,12.73,26.27,25.76,31.96.64.29,1.29.55,1.94.8-1.22-.06-2.42.07-3.57.36-5.15,1.32-9.41,5.93-10.8,11.21-1.94,2.87-3.54,5.94-4.8,9.13Z"/>
        <path class="cls-8" d="M192.28,351.4c1.24,6.53,4.39,12.59,8.99,17.81-16.97,5.33-35.15,10.09-53.78,10.09h-.37c-9.95-.03-34.37-2.06-46.12-20.12-7.21-11.08-7.06-26.3-.74-38.87.67,5.4,3.58,10.55,7.52,14.39,5.15,5.03,11.87,8.13,18.64,10.57,20.96,7.56,43.85,9.56,65.86,6.13Z"/>
        <path class="cls-8" d="M195.05,350.94c-.57-.19-1.13-.41-1.69-.63h5.06c-1.06.21-2.11.41-3.18.6-.06.01-.12.03-.19.03Z"/>
        <path class="cls-8" d="M297.42,351.75c-4.12,18.72-25.42,33.03-51,33.03s-47.43-14.68-51.15-33.75c28.2,10.56,59.78,11.88,88.74,3.69,4.41-1.26,8.86-2.72,13.41-2.97Z"/>
        <path class="cls-8" d="M395.09,316.01c8.67,13.24,9.8,30.79,1.75,43.17-11.75,18.06-36.17,20.09-46.12,20.12h-.37c-20.25,0-40.3-5.73-57.73-11.35,3.94-4.82,6.67-10.3,7.85-16.17,6.08.45,11.76,3.29,17.67,4.9,17.59,4.79,36.26-1.47,52.61-9.54,7.92-3.91,15.93-8.54,20.77-15.93,2.89-4.41,4.27-10.05,3.57-15.2Z"/>
        <path class="cls-8" d="M406.13,327.38c-.67.73-1.37,1.43-2.1,2.12-2-8.58-6.43-16.8-13.04-23.11,8.62-9.85,14.65-21.9,17.56-34.66,4.54,4.43,7.48,10.81,8.62,16.8,2.62,13.69-1.62,28.58-11.04,38.85Z"/>
      </g>
    </g>
  </g>
</svg>