<?xml version="1.0" encoding="UTF-8"?>
<svg xmlns="http://www.w3.org/2000/svg" xmlns:xlink="http://www.w3.org/1999/xlink" viewBox="0 0 500 500">
  <defs>
    <style>
      .cls-1 {
        fill: url(#Gradiente_sem_nome_24-2);
      }

      .cls-2 {
        fill: #341d49;
      }

      .cls-3 {
        fill: url(#Gradiente_sem_nome_11);
      }

      .cls-4 {
        fill: #fbfbfb;
      }

      .cls-5 {
        fill: #442659;
      }

      .cls-6 {
        fill: #eea699;
        mix-blend-mode: multiply;
      }

      .cls-7 {
        fill: url(#Gradiente_sem_nome_24-4);
      }

      .cls-8 {
        isolation: isolate;
      }

      .cls-9 {
        fill: url(#Gradiente_sem_nome_24-3);
      }

      .cls-10 {
        fill: url(#Gradiente_sem_nome_24);
      }

      .cls-11 {
        fill: url(#Gradiente_sem_nome_24-5);
      }

      .cls-12 {
        fill: #f087a9;
      }

      .cls-13 {
        fill: #603a8e;
      }
    </style>
    <linearGradient id="Gradiente_sem_nome_24" data-name="Gradiente sem nome 24" x1="383.17" y1="329.5" x2="383.17" y2="266.03" gradientUnits="userSpaceOnUse">
      <stop offset="0" stop-color="#d7428f"/>
      <stop offset=".47" stop-color="#603a8e"/>
    </linearGradient>
    <linearGradient id="Gradiente_sem_nome_24-2" data-name="Gradiente sem nome 24" x1="347.25" y1="379.3" x2="347.25" y2="294.6" xlink:href="#Gradiente_sem_nome_24"/>
    <linearGradient id="Gradiente_sem_nome_24-3" data-name="Gradiente sem nome 24" x1="149.23" y1="379.3" x2="149.23" y2="294.59" xlink:href="#Gradiente_sem_nome_24"/>
    <linearGradient id="Gradiente_sem_nome_24-4" data-name="Gradiente sem nome 24" x1="246.42" y1="384.78" x2="246.42" y2="305.48" xlink:href="#Gradiente_sem_nome_24"/>
    <linearGradient id="Gradiente_sem_nome_11" data-name="Gradiente sem nome 11" x1="253.86" y1="318.37" x2="253.86" y2="115.87" gradientUnits="userSpaceOnUse">
      <stop offset="0" stop-color="#603a8e"/>
      <stop offset="1" stop-color="#4c266f"/>
    </linearGradient>
    <linearGradient id="Gradiente_sem_nome_24-5" data-name="Gradiente sem nome 24" x1="121.33" y1="322.88" x2="121.33" y2="259.15" xlink:href="#Gradiente_sem_nome_24"/>
  </defs>
  <g class="cls-8">
    <g id="Camada_1">
      <g>
        <path class="cls-4" d="M305.62,245.74c10.17,0,18.44-11.68,18.44-26.03s-8.27-26.03-18.44-26.03-18.44,11.68-18.44,26.03,8.27,26.03,18.44,26.03Z"/>
        <path class="cls-12" d="M195.64,270.74c8.1,0,14.94-3.59,14.94-7.84s-6.84-7.84-14.94-7.84-14.94,3.59-14.94,7.84,6.84,7.84,14.94,7.84Z"/>
        <ellipse class="cls-13" cx="328.09" cy="168.32" rx="4.96" ry="4.29"/>
        <path class="cls-12" d="M311.65,255.13c-8.1,0-14.93,3.59-14.93,7.84s6.84,7.84,14.93,7.84,14.94-3.59,14.94-7.84-6.84-7.84-14.94-7.84Z"/>
        <path class="cls-13" d="M165.7,166.82c2.74,0,4.96-1.92,4.96-4.29s-2.23-4.29-4.96-4.29-4.96,1.92-4.96,4.29,2.23,4.29,4.96,4.29Z"/>
        <path class="cls-13" d="M340.25,161.03c2.74,0,4.96-1.92,4.96-4.29s-2.23-4.29-4.96-4.29-4.96,1.92-4.96,4.29,2.23,4.29,4.96,4.29Z"/>
        <path class="cls-13" d="M321.63,157.46c2.74,0,4.96-1.92,4.96-4.29s-2.23-4.29-4.96-4.29-4.96,1.92-4.96,4.29,2.23,4.29,4.96,4.29Z"/>
        <path class="cls-4" d="M202.63,245.74c10.17,0,18.44-11.68,18.44-26.03s-8.27-26.03-18.44-26.03-18.44,11.68-18.44,26.03,8.27,26.03,18.44,26.03Z"/>
        <path class="cls-10" d="M406.13,327.38c-.67.73-1.37,1.43-2.1,2.12-1.51-6.51-4.43-12.81-8.64-18.22h0c-1.68-2.17-3.56-4.18-5.63-6.03-.01-.01-.02-.01-.03-.02-1.51-1.33-3.11-2.57-4.78-3.7-10.17-6.98-23.11-10.41-36.55-9.88,5.38-4.73,10.18-9.79,14.36-15.13,5.73-2.57,11.6-4.96,17.47-7.11,5.75-2.12,12.4-4.26,18.62-3,4.69.95,8.57,3.72,11.58,7.36,3.47,4.23,5.76,9.64,6.74,14.76,2.62,13.69-1.62,28.58-11.04,38.85Z"/>
        <path class="cls-1" d="M396.84,359.18c-11.75,18.06-36.17,20.09-46.12,20.12h-.37c-20.25,0-40.3-5.73-57.73-11.35,4.35-5.33,7.24-11.46,8.18-18.05.23-1.56.35-3.16.35-4.77,0-8.6-3.29-16.61-8.94-23.32,13.08-12.51,26.87-20.85,41.01-24.76,3.57-.99,7.16-1.66,10.74-2.05.08,0,.16-.01.24-.03,16.43-1.74,32.44,2.71,43.54,12.51,4.59,4.05,8.16,9.05,10.61,14.47,5.54,12.23,5.39,26.63-1.51,37.23Z"/>
        <path class="cls-9" d="M191.99,349.55c.95,7.24,4.25,13.95,9.28,19.66-16.97,5.33-35.15,10.09-53.78,10.09h-.37c-9.95-.03-34.37-2.06-46.12-20.12-8.44-12.96-6.8-31.58,3-45,1.76-2.42,3.8-4.68,6.09-6.7,13.58-11.98,34.47-15.98,54.52-10.43.77.21,1.54.44,2.31.68.02.01.04.01.07.02,9.91,3.1,19.65,8.39,29.07,15.76.1.48.42.91.91,1.11.3.12.61.22.91.34,1.69,1.38,3.37,2.82,5.03,4.33-7.03,7.18-11.22,16.13-11.22,25.84,0,1.49.1,2.97.3,4.42Z"/>
        <path class="cls-7" d="M298.15,345.13c0,1.72-.14,3.41-.42,5.07-3.26,19.48-25.03,34.58-51.31,34.58s-46.98-14.37-51.03-33.15c-.46-2.12-.7-4.29-.7-6.5,0-21.87,23.21-39.65,51.73-39.65,17.41,0,32.83,6.63,42.21,16.77.06.22.17.43.34.61.15.16.33.27.52.34,5.47,6.29,8.66,13.83,8.66,21.93Z"/>
        <path class="cls-3" d="M253.86,115.87c-69.65,0-126.31,46.33-126.31,103.28,0,20.76,7.74,40.95,21.78,57.91,5.36,6.49,11.65,12.5,18.77,17.9,10.71,3.38,21.2,9.21,31.3,17.37,2.65,1.04,5.34,2.01,8.06,2.88,5.85-4.63,13.05-8.22,21.09-10.39,5.6-1.52,11.61-2.34,17.87-2.34,7.65,0,14.93,1.23,21.55,3.46,8.25,2.76,15.45,7.06,21.02,12.43,1.16-.28,2.31-.56,3.42-.85,12.77-11.69,26.21-19.54,40.01-23.36,3.62-1,7.26-1.7,10.88-2.11,6.54-5.36,12.27-11.21,17.15-17.43.07-.15.17-.28.3-.39,1.17-1.52,2.3-3.06,3.37-4.62,10.47-15.24,16.05-32.5,16.05-50.46,0-56.95-56.67-103.28-126.31-103.28ZM202.63,190.68c11.82,0,21.44,13.02,21.44,29.03s-9.62,29.03-21.44,29.03-21.45-13.03-21.45-29.03,9.62-29.03,21.45-29.03ZM195.64,252.06c10.06,0,17.94,4.76,17.94,10.84s-7.88,10.84-17.94,10.84-17.93-4.77-17.93-10.84,7.87-10.84,17.93-10.84ZM165.7,155.25c4.39,0,7.96,3.27,7.96,7.28s-3.57,7.29-7.96,7.29-7.97-3.27-7.97-7.29,3.58-7.28,7.97-7.28ZM329.59,262.97c0,6.07-7.88,10.84-17.94,10.84s-17.93-4.77-17.93-10.84,7.88-10.84,17.93-10.84,17.94,4.76,17.94,10.84ZM328.09,175.61c-4.39,0-7.96-3.27-7.96-7.29s3.57-7.29,7.96-7.29,7.96,3.27,7.96,7.29-3.57,7.29-7.96,7.29ZM340.25,149.46c4.39,0,7.96,3.27,7.96,7.29s-3.57,7.28-7.96,7.28-7.96-3.26-7.96-7.28,3.57-7.29,7.96-7.29ZM321.63,145.89c4.39,0,7.96,3.26,7.96,7.28s-3.57,7.29-7.96,7.29-7.96-3.27-7.96-7.29,3.57-7.28,7.96-7.28ZM305.62,190.68c11.82,0,21.44,13.02,21.44,29.03s-9.62,29.03-21.44,29.03-21.45-13.03-21.45-29.03,9.62-29.03,21.45-29.03ZM267.86,257.14s-.06,0-.09,0c-.79,0-1.45-.62-1.5-1.41-.38-6.29-5.75-11.81-11.73-12.06-2.96-.12-6.09,1.22-8.35,3.61-2.1,2.22-3.17,5.03-2.92,7.71.08.82-.52,1.56-1.35,1.63-.81.09-1.55-.52-1.63-1.35-.34-3.54,1.02-7.21,3.73-10.06,2.85-3,6.83-4.7,10.64-4.54,7.45.31,14.14,7.12,14.61,14.87.05.83-.58,1.54-1.41,1.59Z"/>
        <path class="cls-11" d="M160.99,293.09c-17.47-3.66-35.19-.5-48.26,8.54-.93.63-1.84,1.3-2.72,2-.65.52-1.28,1.05-1.9,1.6-.46.4-.91.81-1.34,1.24-4.85,4.65-8.53,10.32-10.92,16.41-.82-.77-1.63-1.56-2.38-2.38-9.43-10.27-13.66-25.16-11.04-38.85.6-3.16,1.71-6.44,3.29-9.47,3.17-6.12,8.26-11.28,15.02-12.66,6.22-1.26,12.88.89,18.63,3,7.5,2.76,14.97,5.89,22.21,9.3,5.33,7.69,11.84,14.84,19.41,21.27Z"/>
      </g>
      <g id="Camada_2">
        <path class="cls-5" d="M399.45,263.47c-6.99-1.42-14.12.87-20.25,3.12-4.3,1.58-8.61,3.29-12.86,5.1,10.99-15.83,16.83-33.81,16.83-52.55,0-58.6-58.01-106.28-129.31-106.28s-129.31,47.67-129.31,106.28c0,16.8,4.89,33.22,13.95,47.96-5.95-2.68-12.01-5.16-18.1-7.4-6.14-2.25-13.27-4.54-20.25-3.12-11.49,2.33-18.66,13.99-20.67,24.5-2.79,14.61,1.72,30.49,11.78,41.44,1.09,1.19,2.28,2.33,3.52,3.42-3.76,11.88-2.77,24.91,3.71,34.87,12.55,19.29,38.19,21.45,48.62,21.49.13,0,.25,0,.38,0,19.55,0,38.49-5.1,56.09-10.68,10.03,9.83,25.5,16.16,42.84,16.16s34.07-6.84,44.05-17.37c17.93,5.81,38.72,11.89,59.89,11.89.12,0,.25,0,.37,0,10.44-.04,36.08-2.2,48.62-21.49,5.23-8.03,6.87-18.06,5.35-27.88,1.28-1.12,2.51-2.3,3.64-3.53,10.06-10.96,14.57-26.84,11.78-41.44-2.01-10.51-9.18-22.17-20.67-24.5ZM253.86,115.87c69.65,0,126.31,46.33,126.31,103.28,0,19.81-6.77,38.75-19.42,55.08-.12.11-.22.24-.3.39-4.87,6.23-10.6,12.07-17.14,17.43-3.63.41-7.27,1.11-10.88,2.11-13.8,3.82-27.24,11.68-40.01,23.36-1.12.29-2.26.58-3.42.85-10.04-9.68-25.39-15.89-42.57-15.89-15.24,0-29.03,4.88-38.96,12.74-2.71-.88-5.41-1.85-8.06-2.88-10.1-8.16-20.59-14-31.3-17.38-25.77-19.5-40.55-47.12-40.55-75.81,0-56.95,56.66-103.28,126.31-103.28ZM93.47,320.5c-9.43-10.27-13.66-25.16-11.04-38.85,1.82-9.53,8.19-20.07,18.32-22.12,6.21-1.26,12.87.89,18.62,3,7.5,2.75,14.97,5.88,22.21,9.3,5.33,7.68,11.84,14.84,19.41,21.27-19.63-4.11-39.55.38-52.88,12.14-5.52,4.87-9.65,11.01-12.25,17.65-.83-.77-1.63-1.56-2.39-2.38ZM147.49,379.3c-.12,0-.25,0-.37,0-9.95-.03-34.37-2.06-46.12-20.12-9.95-15.3-5.87-38.49,9.09-51.7,13.58-11.98,34.47-15.98,54.52-10.43.77.21,1.54.44,2.3.68.02,0,.05.01.07.02,9.91,3.1,19.65,8.38,29.08,15.76.09.48.42.91.91,1.11.3.12.61.23.91.35,1.69,1.38,3.37,2.82,5.03,4.33-7.03,7.18-11.22,16.13-11.22,25.84,0,8.93,3.54,17.22,9.58,24.08-16.97,5.33-35.15,10.1-53.79,10.1ZM246.42,384.78c-28.52,0-51.73-17.79-51.73-39.65s23.21-39.65,51.73-39.65c17.41,0,32.83,6.63,42.21,16.77.07.22.17.44.35.62.15.16.33.27.52.34,5.46,6.28,8.66,13.82,8.66,21.93,0,21.86-23.21,39.65-51.73,39.65ZM396.84,359.18c-11.75,18.06-36.17,20.09-46.12,20.12-.12,0-.24,0-.36,0-20.26,0-40.3-5.73-57.73-11.35,5.39-6.6,8.53-14.43,8.53-22.82s-3.29-16.61-8.94-23.31c13.08-12.52,26.87-20.85,41.01-24.77,3.57-.99,7.16-1.66,10.73-2.05.08,0,.16-.01.25-.03,16.43-1.74,32.43,2.71,43.54,12.51,14.97,13.21,19.05,36.4,9.09,51.7ZM406.13,327.38c-.66.72-1.37,1.43-2.09,2.11-2.12-9.12-6.99-17.81-14.3-24.27-10.71-9.45-25.68-14.2-41.33-13.58,5.38-4.73,10.18-9.79,14.36-15.13,5.73-2.57,11.6-4.96,17.47-7.12,5.75-2.11,12.4-4.26,18.62-3,10.12,2.06,16.5,12.59,18.32,22.12,2.62,13.69-1.61,28.58-11.04,38.85Z"/>
        <path class="cls-12" d="M195.64,273.74c10.06,0,17.94-4.76,17.94-10.84s-7.88-10.84-17.94-10.84-17.94,4.76-17.94,10.84,7.88,10.84,17.94,10.84ZM195.64,255.06c8.1,0,14.94,3.59,14.94,7.84s-6.84,7.84-14.94,7.84-14.94-3.59-14.94-7.84,6.84-7.84,14.94-7.84Z"/>
        <path class="cls-12" d="M311.65,252.13c-10.06,0-17.93,4.76-17.93,10.84s7.88,10.84,17.93,10.84,17.94-4.76,17.94-10.84-7.88-10.84-17.94-10.84ZM311.65,270.81c-8.1,0-14.93-3.59-14.93-7.84s6.84-7.84,14.93-7.84,14.94,3.59,14.94,7.84-6.84,7.84-14.94,7.84Z"/>
        <path class="cls-13" d="M165.7,169.82c4.39,0,7.96-3.27,7.96-7.29s-3.57-7.29-7.96-7.29-7.96,3.27-7.96,7.29,3.57,7.29,7.96,7.29ZM165.7,158.25c2.74,0,4.96,1.92,4.96,4.29s-2.23,4.29-4.96,4.29-4.96-1.92-4.96-4.29,2.23-4.29,4.96-4.29Z"/>
        <path class="cls-13" d="M321.63,160.46c4.39,0,7.96-3.27,7.96-7.29s-3.57-7.29-7.96-7.29-7.96,3.27-7.96,7.29,3.57,7.29,7.96,7.29ZM321.63,148.89c2.74,0,4.96,1.92,4.96,4.29s-2.23,4.29-4.96,4.29-4.96-1.92-4.96-4.29,2.23-4.29,4.96-4.29Z"/>
        <path class="cls-13" d="M340.25,164.03c4.39,0,7.96-3.27,7.96-7.29s-3.57-7.29-7.96-7.29-7.96,3.27-7.96,7.29,3.57,7.29,7.96,7.29ZM340.25,152.46c2.74,0,4.96,1.92,4.96,4.29s-2.23,4.29-4.96,4.29-4.96-1.92-4.96-4.29,2.23-4.29,4.96-4.29Z"/>
        <path class="cls-13" d="M328.09,161.03c-4.39,0-7.96,3.27-7.96,7.29s3.57,7.29,7.96,7.29,7.96-3.27,7.96-7.29-3.57-7.29-7.96-7.29ZM328.09,172.61c-2.74,0-4.96-1.92-4.96-4.29s2.23-4.29,4.96-4.29,4.96,1.92,4.96,4.29-2.23,4.29-4.96,4.29Z"/>
        <path class="cls-4" d="M202.63,248.74c11.82,0,21.44-13.02,21.44-29.03s-9.62-29.03-21.44-29.03-21.44,13.02-21.44,29.03,9.62,29.03,21.44,29.03ZM202.63,193.68c10.17,0,18.44,11.68,18.44,26.03s-8.27,26.03-18.44,26.03-18.44-11.68-18.44-26.03,8.27-26.03,18.44-26.03Z"/>
        <path class="cls-4" d="M305.62,248.74c11.82,0,21.44-13.02,21.44-29.03s-9.62-29.03-21.44-29.03-21.44,13.02-21.44,29.03,9.62,29.03,21.44,29.03ZM305.62,193.68c10.17,0,18.44,11.68,18.44,26.03s-8.27,26.03-18.44,26.03-18.44-11.68-18.44-26.03,8.27-26.03,18.44-26.03Z"/>
        <path class="cls-2" d="M241.92,256.63c.82-.08,1.43-.81,1.35-1.63-.25-2.68.81-5.49,2.92-7.71,2.26-2.38,5.38-3.73,8.34-3.61,5.98.25,11.36,5.77,11.74,12.06.05.8.71,1.41,1.5,1.41.03,0,.06,0,.09,0,.83-.05,1.46-.76,1.41-1.59-.47-7.75-7.16-14.56-14.61-14.87-3.81-.16-7.79,1.54-10.64,4.54-2.71,2.85-4.07,6.52-3.73,10.06.08.83.82,1.44,1.63,1.35Z"/>
        <path class="cls-6" d="M184.31,226.14c1.16,4.95,3.6,9.81,7.8,13.22s10.32,5.14,15.7,3.62c5.88-1.67,9.75-6.76,11.67-12,1.92-5.24,2.32-10.82,3.82-16.17,1.39,5.76,2.08,11.73.97,17.52s-4.16,11.41-9.26,15.09c-5.1,3.68-12.38,5.15-18.52,2.99-4.65-1.64-8.27-5.16-10.58-9.13-2.31-3.97-3.46-8.38-4.33-12.78-.51-2.54-2.51-10.37.4-12.19,1.97-1.23,1.28,1.93,1.36,3.14.16,2.24.44,4.49.96,6.69Z"/>
        <path class="cls-6" d="M287.29,226.14c1.16,4.95,3.6,9.81,7.8,13.22s10.32,5.14,15.7,3.62c5.88-1.67,9.75-6.76,11.67-12,1.92-5.24,2.32-10.82,3.82-16.17,1.39,5.76,2.08,11.73.97,17.52-1.11,5.79-4.16,11.41-9.26,15.09s-12.38,5.15-18.52,2.99c-4.65-1.64-8.27-5.16-10.58-9.13-2.31-3.97-3.46-8.38-4.33-12.78-.51-2.54-2.51-10.37.4-12.19,1.97-1.23,1.28,1.93,1.36,3.14.16,2.24.44,4.49.96,6.69Z"/>
        <path class="cls-6" d="M177.26,268.96c-1.06-1.06-1.82-2.53-1.83-4.09s.86-3.14,2.22-3.67c2.01-.77,4.05.81,5.89,1.97,3.83,2.41,8.41,3.18,12.83,2.85s8.72-1.7,12.89-3.33c1.67-.65,3.64-1.32,5.14-.29,1.51,1.04,1.75,3.4,1.15,5.21-1.29,3.86-5.23,5.8-8.85,7.08-5.49,1.94-11.74,1.79-17.43.75s-10.82-3.4-12.71-9.28"/>
        <path class="cls-6" d="M293.27,268.96c-1.06-1.06-1.82-2.53-1.83-4.09s.86-3.14,2.22-3.67c2.01-.77,4.05.81,5.89,1.97,3.83,2.41,8.41,3.18,12.83,2.85s8.72-1.7,12.89-3.33c1.67-.65,3.64-1.32,5.14-.29,1.51,1.04,1.75,3.4,1.15,5.21-1.29,3.86-5.23,5.8-8.85,7.08-5.49,1.94-11.74,1.79-17.43.75s-10.82-3.4-12.71-9.28"/>
        <path class="cls-6" d="M254.85,247.65c5,.2,9.83,2.95,12.56,7.14-1.12-3.54-2.47-7.19-5.21-9.7-3.32-3.05-8.52-3.85-12.6-1.95-2.35,1.09-7.2,5.28-5.75,8.08,3.68-1.73,6.66-3.74,11-3.57Z"/>
        <path class="cls-6" d="M219.79,303.38c2.91.55,5.83,1.04,8.76,1.44-8.04,2.17-15.24,5.76-21.09,10.39-2.72-.87-5.41-1.84-8.06-2.88-10.1-8.16-20.59-13.99-31.3-17.37-7.12-5.4-13.41-11.41-18.77-17.9,2.63,1.27,5.25,3.12,7.59,4.29,3.9,1.96,7.84,3.84,11.83,5.62,16.34,7.3,33.43,13.07,51.04,16.41Z"/>
        <path class="cls-6" d="M364.12,269.61c-1.07,1.56-2.2,3.1-3.37,4.62-.13.11-.23.24-.3.39-4.88,6.22-10.61,12.07-17.15,17.43-3.62.41-7.26,1.11-10.88,2.11-13.8,3.82-27.24,11.67-40.01,23.36-1.11.29-2.26.57-3.42.85-5.57-5.37-12.77-9.67-21.02-12.43,11.88-1.03,23.66-3.28,35.11-6.58,20.84-6,40.67-15.51,58.39-28.01.85-.6,1.73-1.21,2.65-1.74Z"/>
        <path class="cls-6" d="M85.13,271.44l-.52-1.85c.3.55.48,1.17.52,1.85Z"/>
        <path class="cls-6" d="M95.85,322.88c-.82-.77-1.63-1.56-2.38-2.38-9.43-10.27-13.66-25.16-11.04-38.85.6-3.16,1.71-6.44,3.29-9.47,5.18,12.56,14.92,23.22,27.01,29.45.72.37,1.44.72,2.17,1.06-1.76-.24-3.42.13-4.89.94-1.24.68-2.34,1.66-3.24,2.84-4.85,4.65-8.53,10.32-10.92,16.41Z"/>
        <path class="cls-6" d="M191.99,349.55c.95,7.24,4.25,13.95,9.28,19.66-16.97,5.33-35.15,10.09-53.78,10.09h-.37c-9.95-.03-34.37-2.06-46.12-20.12-8.44-12.96-6.8-31.58,3-45-.03.7.01,1.38.12,2.06,1.04,6.62,6.08,11.82,11.08,16.29,10.54,9.41,22.35,17.89,35.9,21.92,13.55,4.04,29.11,3.12,40.66-5.04.08.05.15.1.23.14Z"/>
        <path class="cls-6" d="M297.73,350.2c-3.26,19.48-25.03,34.58-51.31,34.58s-46.98-14.37-51.03-33.15c23.58,13.65,51.17,10.69,78.9,6.66,8.19-1.19,17.92-4.48,23.44-8.09Z"/>
        <path class="cls-6" d="M398.35,321.95c5.54,12.23,5.39,26.63-1.51,37.23-11.75,18.06-36.17,20.09-46.12,20.12h-.37c-20.25,0-40.3-5.73-57.73-11.35,4.35-5.33,7.24-11.46,8.18-18.05,6-.32,11.97.95,17.92,1.87,12.91,1.97,26.07,2.25,39.05.82,9.15-1.02,18.42-2.96,26.23-7.83s13.97-13.12,14.34-22.31c0-.17,0-.33,0-.5Z"/>
        <path class="cls-6" d="M406.13,327.38c-.67.73-1.37,1.43-2.1,2.12-1.51-6.51-4.43-12.81-8.64-18.22h0c-1.45-2.41-3.37-4.5-5.63-6.03-.01-.01-.02-.01-.03-.02-2.03-1.36-4.34-2.28-6.83-2.56.69-.37,1.38-.75,2.05-1.14,11.03-6.4,20-16.25,25.48-27.76,3.47,4.23,5.76,9.64,6.74,14.76,2.62,13.69-1.62,28.58-11.04,38.85Z"/>
      </g>
    </g>
  </g>
</svg>