<?xml version="1.0" encoding="UTF-8"?>
<svg xmlns="http://www.w3.org/2000/svg" xmlns:xlink="http://www.w3.org/1999/xlink" viewBox="0 0 500 500">
  <defs>
    <style>
      .cls-1 {
        fill: url(#Gradiente_sem_nome_52-5);
      }

      .cls-2 {
        fill: #fbfbfb;
      }

      .cls-3 {
        fill: url(#Gradiente_sem_nome_23);
      }

      .cls-4 {
        fill: #eea699;
        mix-blend-mode: multiply;
      }

      .cls-5 {
        fill: #f087aa;
      }

      .cls-6 {
        isolation: isolate;
      }

      .cls-7 {
        fill: url(#Gradiente_sem_nome_52-2);
      }

      .cls-8 {
        fill: url(#Gradiente_sem_nome_52);
      }

      .cls-9 {
        fill: #37245b;
      }

      .cls-10 {
        fill: #603a8e;
      }

      .cls-11 {
        fill: url(#Gradiente_sem_nome_52-4);
      }

      .cls-12 {
        fill: url(#Gradiente_sem_nome_52-3);
      }
    </style>
    <linearGradient id="Gradiente_sem_nome_52" data-name="Gradiente sem nome 52" x1="137.87" y1="366.66" x2="137.87" y2="281.95" gradientUnits="userSpaceOnUse">
      <stop offset="0" stop-color="#d7408f"/>
      <stop offset=".42" stop-color="#5f388c"/>
    </linearGradient>
    <linearGradient id="Gradiente_sem_nome_52-2" data-name="Gradiente sem nome 52" x1="235.05" y1="372.14" x2="235.05" y2="292.84" xlink:href="#Gradiente_sem_nome_52"/>
    <linearGradient id="Gradiente_sem_nome_52-3" data-name="Gradiente sem nome 52" x1="371.8" y1="316.85" x2="371.8" y2="253.39" xlink:href="#Gradiente_sem_nome_52"/>
    <linearGradient id="Gradiente_sem_nome_52-4" data-name="Gradiente sem nome 52" x1="335.88" y1="366.66" x2="335.88" y2="281.96" xlink:href="#Gradiente_sem_nome_52"/>
    <linearGradient id="Gradiente_sem_nome_52-5" data-name="Gradiente sem nome 52" x1="109.96" y1="310.24" x2="109.96" y2="246.51" xlink:href="#Gradiente_sem_nome_52"/>
    <linearGradient id="Gradiente_sem_nome_23" data-name="Gradiente sem nome 23" x1="242.49" y1="305.72" x2="242.49" y2="103.23" gradientUnits="userSpaceOnUse">
      <stop offset="0" stop-color="#603a8e"/>
      <stop offset="1" stop-color="#4c2771"/>
    </linearGradient>
  </defs>
  <g class="cls-6">
    <g id="Camada_2">
      <g>
        <path class="cls-5" d="M184.27,242.42c-8.1,0-14.94,3.59-14.94,7.84s6.84,7.84,14.94,7.84,14.94-3.59,14.94-7.84-6.84-7.84-14.94-7.84Z"/>
        <path class="cls-2" d="M250.19,247.34c6.39-2.69,10.89-9.19,10.95-15.82.02-1.98-.44-3.39-1.37-4.19-1.3-1.13-3.59-1.2-5.79-1.17-1.27.02-3.27-.02-5.59-.06-2.41-.04-5.5-.09-8.68-.09-6.44,0-13.23.21-15.35,1.16-.35.16-.77.45-.94,1.37-.72,3.94,4.14,12.75,6.83,15.41,4.76,4.71,13.33,6.17,19.94,3.39Z"/>
        <ellipse class="cls-10" cx="154.33" cy="149.89" rx="4.96" ry="4.29"/>
        <path class="cls-10" d="M316.72,151.39c-2.74,0-4.96,1.92-4.96,4.29s2.23,4.29,4.96,4.29,4.96-1.92,4.96-4.29-2.23-4.29-4.96-4.29Z"/>
        <path class="cls-10" d="M328.88,148.39c2.74,0,4.96-1.92,4.96-4.29s-2.23-4.29-4.96-4.29-4.96,1.92-4.96,4.29,2.23,4.29,4.96,4.29Z"/>
        <path class="cls-5" d="M300.28,242.49c-8.1,0-14.94,3.59-14.94,7.84s6.84,7.84,14.94,7.84,14.94-3.59,14.94-7.84-6.84-7.84-14.94-7.84Z"/>
        <path class="cls-10" d="M310.26,144.82c2.74,0,4.96-1.92,4.96-4.29s-2.23-4.29-4.96-4.29-4.96,1.92-4.96,4.29,2.23,4.29,4.96,4.29Z"/>
        <path class="cls-2" d="M284.34,221.31c3.59,2.6,8.06,5.84,12.88,6.11,4.8.27,9.3-2.26,14.25-5.34,6.88-4.28,14.68-9.13,19.19-16.48,4.09-6.66,4.74-16.8-1.23-22.24-6.25-5.68-16.79-3.58-22.98,1.63-2,1.68-3.8,3.68-5.5,6.1-.48.68-1.42.84-2.09.36-.28-.2-.48-.48-.57-.79-.08-.08-.16-.18-.22-.28-2.63-4.31-5.45-7.58-8.6-9.97-3.3-2.51-7.9-4.37-12.47-4.37-2.76,0-5.52.68-7.96,2.31-7.33,4.89-7.81,16.07-4.05,23.61,4.14,8.32,12.22,14.17,19.34,19.33Z"/>
        <path class="cls-2" d="M171.73,222.08c4.95,3.08,9.44,5.61,14.25,5.34,4.82-.27,9.29-3.51,12.88-6.11,7.12-5.16,15.19-11.01,19.34-19.33,3.76-7.54,3.28-18.72-4.05-23.61-6.48-4.33-15.13-1.97-20.43,2.05-3.11,2.36-5.89,5.56-8.49,9.79-.08.13-.18.25-.3.35-.08.35-.28.67-.6.89-.68.48-1.61.31-2.09-.36-1.71-2.42-3.5-4.41-5.5-6.1-3.6-3.04-8.69-5.02-13.54-5.02-3.47,0-6.83,1.02-9.44,3.39-5.97,5.44-5.32,15.58-1.23,22.24,4.51,7.35,12.31,12.2,19.19,16.48Z"/>
        <path class="cls-8" d="M180.36,334.15c.41,8.29,3.88,15.99,9.54,22.41-17.08,5.37-35.41,10.17-54.15,10.1-5.94-.02-17.03-.75-27.51-5.18-7.07-2.98-13.88-7.66-18.61-14.94-3.47-5.32-5.23-11.59-5.43-18.06-.38-12.16,4.75-25.02,14.52-33.64,13.58-11.98,34.47-15.98,54.52-10.43.77.21,1.54.44,2.31.68.02.01.04.01.07.02,7.01,2.19,13.93,5.48,20.71,9.82,2.81,1.8,5.6,3.78,8.36,5.94.1.48.42.91.91,1.11.3.12.61.22.91.34,1.69,1.38,3.37,2.82,5.04,4.33-7.04,7.18-11.23,16.13-11.23,25.84,0,.56.01,1.11.04,1.66Z"/>
        <path class="cls-7" d="M286.78,332.49c0,2.84-.39,5.6-1.13,8.27-4.98,17.91-25.77,31.38-50.6,31.38-26.89,0-49.07-15.82-51.5-35.95-.15-1.22-.23-2.45-.23-3.7,0-21.87,23.21-39.65,51.73-39.65,17.41,0,32.83,6.63,42.21,16.76.06.23.17.44.34.62.15.16.33.27.53.34,5.46,6.29,8.65,13.83,8.65,21.93Z"/>
        <path class="cls-12" d="M387.48,253.77c-6.21-1.26-12.87.89-18.62,3-5.87,2.16-11.74,4.55-17.46,7.12-4.18,5.34-8.99,10.4-14.37,15.13,15.65-.63,30.62,4.13,41.33,13.58,7.31,6.45,12.18,15.15,14.31,24.26.72-.69,1.43-1.39,2.09-2.11,9.43-10.27,13.66-25.16,11.04-38.85-1.82-9.53-8.19-20.07-18.32-22.12Z"/>
        <path class="cls-11" d="M390.66,331.62c-.59,5.35-2.3,10.47-5.19,14.92-3.35,5.16-7.75,9.01-12.54,11.87-11.98,7.19-26.47,8.23-33.58,8.25h-.36c-20.26,0-40.31-5.73-57.74-11.35,4.8-5.88,7.81-12.73,8.41-20.08.08-.91.12-1.82.12-2.74,0-8.6-3.29-16.61-8.93-23.32,5.92-5.66,11.99-10.48,18.18-14.41,7.46-4.75,15.09-8.21,22.82-10.35,3.57-.99,7.17-1.66,10.74-2.05.08,0,.16-.01.23-.03,16.44-1.74,32.44,2.71,43.55,12.51,10.61,9.37,15.75,23.75,14.29,36.78Z"/>
        <path class="cls-1" d="M149.62,280.45c-.48-.1-.96-.2-1.44-.28-19.16-3.61-38.45.95-51.44,12.42-5.52,4.87-9.65,11.01-12.26,17.65-.82-.77-1.63-1.56-2.38-2.38-2.77-3.02-5.1-6.45-6.92-10.12-4.41-8.81-5.97-19.07-4.12-28.73,1.82-9.53,8.19-20.07,18.31-22.13,6.22-1.26,12.88.89,18.63,3,6.19,2.28,12.36,4.81,18.39,7.54,1.28.58,2.55,1.16,3.82,1.76,5.03,7.24,11.1,14.02,18.12,20.16.43.37.86.74,1.29,1.11Z"/>
        <path class="cls-3" d="M242.49,103.23c-69.65,0-126.31,46.33-126.31,103.28,0,25.53,11.7,50.21,32.44,69.06,2.57,2.35,5.27,4.59,8.11,6.74,10.71,3.39,21.2,9.22,31.3,17.38,2.64,1.03,5.34,2,8.06,2.88,4.54-3.59,9.88-6.56,15.8-8.72,7.04-2.57,14.89-4.01,23.16-4.01s15.58,1.34,22.43,3.75c7.88,2.77,14.77,6.95,20.14,12.13,1.14-.27,2.29-.55,3.43-.85,12.77-11.68,26.2-19.54,40-23.35,3.62-1,7.26-1.7,10.88-2.11,5.45-4.47,10.34-9.27,14.63-14.35.86-1.01,1.7-2.04,2.51-3.08.08-.15.18-.28.31-.4,12.65-16.33,19.42-35.27,19.42-55.07,0-56.95-56.66-103.28-126.31-103.28ZM328.88,136.82c4.39,0,7.96,3.27,7.96,7.29s-3.57,7.28-7.96,7.28-7.96-3.27-7.96-7.28,3.57-7.29,7.96-7.29ZM324.68,155.68c0,4.02-3.57,7.29-7.96,7.29s-7.96-3.27-7.96-7.29,3.57-7.29,7.96-7.29,7.96,3.27,7.96,7.29ZM310.26,133.24c4.39,0,7.96,3.27,7.96,7.29s-3.57,7.29-7.96,7.29-7.97-3.27-7.97-7.29,3.58-7.29,7.97-7.29ZM267.38,175.87c7.71-5.14,17.79-2.48,23.91,2.16,3.14,2.38,5.94,5.51,8.55,9.53,1.46-1.85,3-3.45,4.68-4.86,7.31-6.16,19.38-8.43,26.93-1.56,7.39,6.73,6.43,18.43,1.77,26.03-4.88,7.96-13.35,13.23-20.16,17.46-3.97,2.47-9.35,5.81-15.17,5.81-.28,0-.56-.01-.84-.03-5.7-.32-10.56-3.84-14.47-6.68-7.4-5.36-15.79-11.44-20.27-20.42-4.42-8.87-3.73-21.56,5.07-27.44ZM318.22,250.33c0,6.07-7.88,10.84-17.94,10.84s-17.93-4.77-17.93-10.84,7.88-10.84,17.93-10.84,17.94,4.76,17.94,10.84ZM154.33,142.61c4.39,0,7.96,3.27,7.96,7.28s-3.57,7.29-7.96,7.29-7.97-3.27-7.97-7.29,3.58-7.28,7.97-7.28ZM166.34,250.26c0-6.08,7.87-10.84,17.93-10.84s17.94,4.76,17.94,10.84-7.88,10.84-17.94,10.84-17.93-4.77-17.93-10.84ZM200.63,223.73c-3.91,2.84-8.77,6.36-14.48,6.68-.28.02-.56.03-.84.03-5.82,0-11.19-3.34-15.16-5.81-6.81-4.23-15.29-9.51-20.16-17.46-4.66-7.6-5.63-19.3,1.77-26.03,7.54-6.87,19.62-4.6,26.93,1.56,1.67,1.41,3.21,3.01,4.67,4.86,2.61-4.02,5.42-7.15,8.55-9.53,6.12-4.64,16.21-7.3,23.91-2.16,8.81,5.88,9.49,18.57,5.07,27.44-4.47,8.98-12.86,15.06-20.26,20.42ZM251.35,250.1c-2.66,1.12-5.56,1.66-8.44,1.66-5.54,0-11.04-1.99-14.77-5.68-2.84-2.81-8.68-12.55-7.67-18.08.3-1.69,1.23-2.92,2.67-3.57,3.47-1.55,13.94-1.51,25.29-1.32,2.3.04,4.28.07,5.5.05,2.79-.03,5.7.08,7.8,1.9,1.62,1.4,2.43,3.58,2.4,6.48-.07,7.91-5.21,15.37-12.78,18.56Z"/>
      </g>
      <g id="Camada_3">
        <path class="cls-9" d="M408.75,275.33c-2.01-10.51-9.18-22.17-20.67-24.5-6.99-1.42-14.12.87-20.26,3.12-4.3,1.58-8.61,3.29-12.86,5.1,10.99-15.83,16.83-33.81,16.83-52.54,0-58.6-58.01-106.28-129.31-106.28s-129.31,47.67-129.31,106.28c0,16.8,4.89,33.22,13.95,47.96-5.95-2.68-12.01-5.16-18.1-7.4-6.14-2.25-13.27-4.54-20.25-3.12-11.49,2.33-18.66,13.99-20.67,24.5-2.79,14.61,1.72,30.49,11.78,41.44,1.1,1.2,2.28,2.33,3.52,3.42-3.76,11.88-2.77,24.91,3.71,34.87,12.55,19.29,38.18,21.45,48.62,21.49.13,0,.25,0,.38,0,19.55,0,38.49-5.1,56.09-10.68,10.03,9.83,25.5,16.16,42.84,16.16s34.07-6.84,44.05-17.37c17.93,5.81,38.72,11.89,59.89,11.89.12,0,.25,0,.37,0,10.44-.04,36.08-2.2,48.62-21.49,5.23-8.03,6.87-18.06,5.35-27.88,1.28-1.11,2.5-2.29,3.64-3.53,10.06-10.96,14.57-26.84,11.78-41.44ZM242.49,103.23c69.65,0,126.31,46.33,126.31,103.28,0,19.8-6.77,38.75-19.42,55.08-.12.11-.23.25-.31.39-4.87,6.23-10.6,12.07-17.14,17.43-3.63.41-7.27,1.11-10.88,2.11-13.8,3.82-27.24,11.67-40,23.35-1.14.3-2.29.58-3.43.85-10.04-9.68-25.39-15.88-42.57-15.88-15.24,0-29.03,4.88-38.96,12.74-2.72-.88-5.41-1.85-8.06-2.88-10.1-8.16-20.59-13.99-31.3-17.38-25.77-19.5-40.55-47.12-40.55-75.81,0-56.95,56.66-103.28,126.31-103.28ZM82.1,307.86c-9.43-10.27-13.66-25.16-11.04-38.85,1.82-9.53,8.19-20.06,18.32-22.12,6.21-1.26,12.87.89,18.62,3,7.5,2.75,14.97,5.88,22.21,9.3,5.33,7.68,11.84,14.84,19.41,21.27-19.63-4.11-39.55.38-52.88,12.14-5.52,4.87-9.65,11.01-12.25,17.65-.83-.77-1.63-1.56-2.39-2.38ZM135.75,366.66c-9.95-.03-34.37-2.06-46.12-20.12-9.95-15.3-5.87-38.49,9.09-51.7,13.58-11.98,34.47-15.98,54.52-10.43.77.21,1.54.44,2.3.68.02,0,.05.01.07.02,9.91,3.1,19.65,8.38,29.08,15.76.09.48.42.91.91,1.11.3.12.61.23.91.35,1.69,1.38,3.37,2.82,5.03,4.33-7.03,7.18-11.22,16.13-11.22,25.84,0,8.93,3.54,17.22,9.58,24.08-17.08,5.37-35.41,10.16-54.16,10.1ZM235.05,372.14c-28.52,0-51.73-17.79-51.73-39.65s23.21-39.65,51.73-39.65c17.41,0,32.82,6.63,42.21,16.77.07.22.17.44.35.62.15.16.33.27.52.34,5.46,6.28,8.66,13.82,8.66,21.93,0,21.86-23.21,39.65-51.73,39.65ZM385.47,346.54c-11.75,18.06-36.17,20.09-46.12,20.12-.12,0-.24,0-.36,0-20.26,0-40.3-5.73-57.73-11.35,5.39-6.6,8.53-14.43,8.53-22.82s-3.29-16.61-8.94-23.32c13.08-12.51,26.87-20.85,41.01-24.76,3.57-.99,7.16-1.66,10.74-2.05.08,0,.15-.01.23-.03,16.43-1.74,32.44,2.71,43.55,12.51,14.97,13.21,19.05,36.4,9.09,51.7ZM394.76,314.74c-.67.73-1.37,1.43-2.09,2.11-2.12-9.11-6.99-17.81-14.31-24.26-10.71-9.45-25.68-14.2-41.33-13.58,5.38-4.73,10.18-9.79,14.37-15.13,5.72-2.57,11.6-4.96,17.46-7.12,5.75-2.11,12.41-4.26,18.62-3,10.12,2.06,16.5,12.59,18.32,22.12,2.62,13.69-1.61,28.58-11.04,38.85Z"/>
        <path class="cls-2" d="M170.15,224.63c3.97,2.47,9.34,5.81,15.17,5.81.28,0,.56,0,.84-.02,5.7-.32,10.57-3.85,14.48-6.68,7.4-5.36,15.79-11.44,20.26-20.42,4.42-8.87,3.73-21.56-5.07-27.44-7.7-5.14-17.79-2.48-23.91,2.16-3.14,2.38-5.94,5.51-8.55,9.53-1.46-1.85-3-3.45-4.68-4.86-7.31-6.16-19.38-8.43-26.93-1.56-7.39,6.73-6.43,18.43-1.77,26.03,4.88,7.96,13.35,13.23,20.16,17.46ZM153.77,183.36c2.61-2.37,5.96-3.39,9.44-3.39,4.85,0,9.94,1.98,13.54,5.02,2,1.68,3.8,3.68,5.5,6.1.48.68,1.41.84,2.09.36.31-.22.52-.54.6-.89.11-.1.21-.21.3-.35,2.6-4.23,5.38-7.43,8.49-9.79,5.3-4.02,13.95-6.38,20.43-2.05,7.33,4.89,7.81,16.07,4.05,23.61-4.15,8.32-12.22,14.17-19.34,19.33-3.59,2.6-8.06,5.84-12.88,6.11-4.81.27-9.3-2.26-14.25-5.34-6.88-4.28-14.68-9.13-19.19-16.48-4.09-6.66-4.74-16.8,1.23-22.24Z"/>
        <path class="cls-2" d="M282.58,223.73c3.91,2.83,8.77,6.36,14.48,6.68.28.02.56.02.84.02,5.82,0,11.2-3.34,15.17-5.81,6.81-4.23,15.28-9.5,20.16-17.46,4.66-7.6,5.62-19.3-1.77-26.03-7.55-6.87-19.62-4.6-26.93,1.56-1.68,1.41-3.22,3.01-4.68,4.86-2.61-4.03-5.42-7.15-8.55-9.53-6.12-4.64-16.21-7.3-23.91-2.16-8.8,5.88-9.49,18.57-5.07,27.44,4.47,8.98,12.86,15.06,20.26,20.42ZM269.05,178.37c2.44-1.63,5.19-2.31,7.96-2.31,4.57,0,9.17,1.86,12.47,4.37,3.15,2.39,5.96,5.65,8.6,9.97.06.1.14.2.22.28.09.31.29.59.57.79.67.47,1.61.31,2.09-.36,1.7-2.42,3.5-4.41,5.5-6.1,6.18-5.21,16.73-7.32,22.98-1.63,5.97,5.44,5.32,15.58,1.23,22.24-4.51,7.35-12.31,12.2-19.19,16.48-4.95,3.08-9.45,5.61-14.25,5.34-4.82-.27-9.29-3.51-12.88-6.11-7.12-5.16-15.19-11.01-19.34-19.33-3.76-7.54-3.28-18.72,4.05-23.61Z"/>
        <path class="cls-2" d="M220.47,228c-1.01,5.53,4.84,15.27,7.67,18.08,3.73,3.69,9.23,5.68,14.77,5.68,2.88,0,5.78-.54,8.44-1.66,7.57-3.19,12.71-10.65,12.78-18.56.03-2.9-.78-5.08-2.4-6.48-2.1-1.82-5-1.93-7.8-1.9-1.22.02-3.21-.02-5.5-.06-11.35-.19-21.82-.23-25.3,1.33-1.44.64-2.36,1.88-2.67,3.57ZM223.42,228.54c.17-.91.59-1.21.94-1.37,2.11-.94,8.9-1.16,15.35-1.16,3.18,0,6.27.05,8.68.09,2.32.04,4.31.07,5.59.06,2.21-.03,4.49.04,5.79,1.17.93.8,1.39,2.21,1.37,4.19-.06,6.62-4.56,13.13-10.95,15.82-6.6,2.78-15.17,1.32-19.94-3.39-2.69-2.66-7.55-11.47-6.83-15.41Z"/>
        <path class="cls-5" d="M184.27,239.42c-10.06,0-17.94,4.76-17.94,10.84s7.88,10.84,17.94,10.84,17.94-4.76,17.94-10.84-7.88-10.84-17.94-10.84ZM184.27,258.1c-8.1,0-14.94-3.59-14.94-7.84s6.84-7.84,14.94-7.84,14.94,3.59,14.94,7.84-6.84,7.84-14.94,7.84Z"/>
        <path class="cls-5" d="M300.28,239.49c-10.06,0-17.94,4.76-17.94,10.84s7.88,10.84,17.94,10.84,17.94-4.76,17.94-10.84-7.88-10.84-17.94-10.84ZM300.28,258.17c-8.1,0-14.94-3.59-14.94-7.84s6.84-7.84,14.94-7.84,14.94,3.59,14.94,7.84-6.84,7.84-14.94,7.84Z"/>
        <path class="cls-10" d="M154.33,157.18c4.39,0,7.96-3.27,7.96-7.29s-3.57-7.29-7.96-7.29-7.96,3.27-7.96,7.29,3.57,7.29,7.96,7.29ZM154.33,145.61c2.74,0,4.96,1.92,4.96,4.29s-2.23,4.29-4.96,4.29-4.96-1.92-4.96-4.29,2.23-4.29,4.96-4.29Z"/>
        <path class="cls-10" d="M310.26,147.82c4.39,0,7.96-3.27,7.96-7.29s-3.57-7.29-7.96-7.29-7.96,3.27-7.96,7.29,3.57,7.29,7.96,7.29ZM310.26,136.24c2.74,0,4.96,1.92,4.96,4.29s-2.23,4.29-4.96,4.29-4.96-1.92-4.96-4.29,2.23-4.29,4.96-4.29Z"/>
        <path class="cls-10" d="M328.88,151.39c4.39,0,7.96-3.27,7.96-7.29s-3.57-7.29-7.96-7.29-7.96,3.27-7.96,7.29,3.57,7.29,7.96,7.29ZM328.88,139.82c2.74,0,4.96,1.92,4.96,4.29s-2.23,4.29-4.96,4.29-4.96-1.92-4.96-4.29,2.23-4.29,4.96-4.29Z"/>
        <path class="cls-10" d="M316.72,148.39c-4.39,0-7.96,3.27-7.96,7.29s3.57,7.29,7.96,7.29,7.96-3.27,7.96-7.29-3.57-7.29-7.96-7.29ZM316.72,159.97c-2.74,0-4.96-1.92-4.96-4.29s2.23-4.29,4.96-4.29,4.96,1.92,4.96,4.29-2.23,4.29-4.96,4.29Z"/>
      </g>
      <g id="Camada_4">
        <path class="cls-4" d="M165.07,253.77c-1.58-.76-1.32-2.64.17-3.49s3.65-.85,5.47-.43,3.42,1.19,5.14,1.79c6.16,2.13,13.92,1.75,19.61-.95,1.12-.53,2.18-1.15,3.4-1.55s2.7-.57,3.92-.16c1.25.42,2.01,1.39,2.16,2.36s-.23,1.95-.76,2.85c-1.67,2.85-4.9,5.18-8.73,6.66s-8.25,2.12-12.62,2.09c-4.46-.03-9-.76-12.68-2.55s-6.37-4.7-6.57-7.84c-.05-.76.12-1.61.96-2.08"/>
        <path class="cls-4" d="M281.09,253.77c-1.58-.76-1.32-2.64.17-3.49s3.65-.85,5.47-.43,3.42,1.19,5.14,1.79c6.16,2.13,13.92,1.75,19.61-.95,1.12-.53,2.18-1.15,3.4-1.55s2.7-.57,3.92-.16c1.25.42,2.01,1.39,2.16,2.36s-.23,1.95-.76,2.85c-1.67,2.85-4.9,5.18-8.73,6.66s-8.25,2.12-12.62,2.09c-4.46-.03-9-.76-12.68-2.55s-6.37-4.7-6.57-7.84c-.05-.76.12-1.61.96-2.08"/>
        <path class="cls-4" d="M242.6,245.91c7.8-.09,15.47-3.9,20.25-10.06.87,7.41-2.73,15.17-8.96,19.28s-14.78,4.38-21.25.68c-2.91-1.67-5.35-4.12-7.11-6.98-.98-1.6-4.53-8.31-2.82-10.08,1.14-1.18,6.71,3.8,8.61,4.68,3.51,1.64,7.39,2.52,11.27,2.48Z"/>
        <path class="cls-4" d="M152.94,215.19c5.03,5.72,11.28,10.26,17.81,14.21,5.79,3.5,12.43,6.66,19.09,5.41,5.76-1.08,10.36-5.24,14.63-9.23,4.75-4.44,9.53-8.91,13.41-14.11s6.85-11.25,7.51-17.69c-1.94-.33-3.12-1.85-5.17,2.27-.87,1.76-1.69,3.57-2.94,5.08-7.21,8.67-14.82,16.66-24.6,22.14-2.58,1.44-5.36,2.87-8.32,2.77-3.45-.12-6.44-2.26-9.18-4.35-8.6-6.57-16.44-14.49-25.24-20.72-2.73-1.93-6.49-3.36-4.99,1.24s4.71,9.26,7.99,12.98Z"/>
        <path class="cls-4" d="M266.53,213.94c5.03,5.72,11.28,10.26,17.81,14.21,5.79,3.5,12.43,6.66,19.09,5.41,5.76-1.08,10.36-5.24,14.63-9.23,4.75-4.44,9.53-8.91,13.41-14.11,3.88-5.21,6.85-11.25,7.51-17.69-1.94-.33-3.12-1.85-5.17,2.27-.87,1.76-1.69,3.57-2.94,5.08-7.21,8.67-14.82,16.66-24.6,22.14-2.58,1.44-5.36,2.87-8.32,2.77-3.45-.12-6.44-2.26-9.18-4.35-8.6-6.57-16.44-14.49-25.24-20.72-2.73-1.93-6.49-3.36-4.99,1.24s4.71,9.26,7.99,12.98Z"/>
        <path class="cls-4" d="M177.38,286.51c11.21,3.62,22.81,6.03,34.51,7.34-5.92,2.16-11.26,5.13-15.8,8.72-2.72-.88-5.42-1.85-8.06-2.88-10.1-8.16-20.59-13.99-31.3-17.38-2.84-2.15-5.54-4.39-8.11-6.74,4.09-.51,8.86,3.09,12.2,4.59,5.4,2.42,10.93,4.54,16.56,6.35Z"/>
        <path class="cls-4" d="M346.56,265.06c-4.29,5.08-9.18,9.88-14.63,14.35-3.62.41-7.26,1.11-10.88,2.11-13.8,3.81-27.23,11.67-40,23.35-1.14.3-2.29.58-3.43.85-5.37-5.18-12.26-9.36-20.14-12.13,31.1-3.7,61.17-14.18,89.08-28.53Z"/>
        <path class="cls-4" d="M180.36,334.15c.41,8.29,3.88,15.99,9.54,22.41-17.08,5.37-35.41,10.17-54.15,10.1-5.94-.02-17.03-.75-27.51-5.18-7.07-2.98-13.88-7.66-18.61-14.94-3.47-5.32-5.23-11.59-5.43-18.06,5.94,3.03,12.08,5.54,18.53,7.5,16.6,5.05,34.26,6.57,51.48,4.41,1.95-.25,20.48-4.46,26.15-6.24Z"/>
        <path class="cls-4" d="M285.65,340.76c-4.98,17.91-25.77,31.38-50.6,31.38-26.89,0-49.07-15.82-51.5-35.95,10.64,17.88,30.92,29.73,51.77,30,19.54.25,38.84-9.69,50.33-25.43Z"/>
        <path class="cls-4" d="M390.66,331.62c-.59,5.35-2.3,10.47-5.19,14.92-3.35,5.16-7.75,9.01-12.54,11.87-11.98,7.19-26.47,8.23-33.58,8.25h-.36c-20.26,0-40.31-5.73-57.74-11.35,4.8-5.88,7.81-12.73,8.41-20.08,3.95,8.41,13.09,13.5,22.29,15,9.35,1.52,18.89-.09,28.23-1.69,17.58-3.02,36.39-6.73,50.48-16.92Z"/>
        <path class="cls-4" d="M68.92,285.51c3.81,9.35,9.02,18.13,15.39,25.97,4.49-13.39,16.17-23.74,29.54-28.3,13.37-4.56,28.2-3.74,41.67.52-8.43-4.9-14.81-12.58-21-20.11.11,3.18-1.56,6.22-3.87,8.41s-5.22,3.62-8.14,4.88c-11.54,4.99-24.05,7.72-36.62,8.01-3.63.08-7.33-.05-10.74-1.28s-6.54-3.71-7.76-7.12c.58,5.17,1.95,10.25,4.04,15.01"/>
        <path class="cls-4" d="M361.94,283.76c4.9,1.78,9.91,3.62,13.89,6.98,4.12,3.47,6.81,8.29,9.42,13.01,2.71,4.89,5.42,9.79,8.13,14.68,10.52-11.19,15.39-27.45,12.74-42.58.86,2.94-1.04,6.14-3.68,7.71s-5.82,1.85-8.89,1.93c-8.64.23-17.35-.91-25.57-3.61-8.49-2.79-15.04-7.43-22.05-12.7-3.32,3.3-16.01,9.53-8.9,11.12,6.12,1.36,18.95,1.34,24.91,3.48Z"/>
      </g>
    </g>
  </g>
</svg>