<?xml version="1.0" encoding="UTF-8"?>
<svg xmlns="http://www.w3.org/2000/svg" xmlns:xlink="http://www.w3.org/1999/xlink" viewBox="0 0 500 500">
  <defs>
    <style>
      .cls-1 {
        fill: url(#Gradiente_sem_nome_23-5);
      }

      .cls-2 {
        fill: url(#Gradiente_sem_nome_23-4);
      }

      .cls-3 {
        fill: #fbfbfb;
      }

      .cls-4 {
        fill: url(#Gradiente_sem_nome_23);
      }

      .cls-5 {
        fill: #442659;
      }

      .cls-6 {
        fill: url(#Gradiente_sem_nome_23-2);
      }

      .cls-7 {
        fill: #eea699;
        mix-blend-mode: multiply;
      }

      .cls-8 {
        fill: #f087aa;
      }

      .cls-9 {
        isolation: isolate;
      }

      .cls-10 {
        fill: url(#Gradiente_sem_nome_10);
      }

      .cls-11 {
        fill: #322050;
      }

      .cls-12 {
        fill: url(#Gradiente_sem_nome_23-3);
      }

      .cls-13 {
        fill: #603a8e;
      }
    </style>
    <linearGradient id="Gradiente_sem_nome_23" data-name="Gradiente sem nome 23" x1="149.23" y1="379.3" x2="149.23" y2="294.59" gradientUnits="userSpaceOnUse">
      <stop offset="0" stop-color="#d7408f"/>
      <stop offset=".54" stop-color="#4c2771"/>
    </linearGradient>
    <linearGradient id="Gradiente_sem_nome_23-2" data-name="Gradiente sem nome 23" x1="121.33" y1="322.88" x2="121.33" y2="259.15" xlink:href="#Gradiente_sem_nome_23"/>
    <linearGradient id="Gradiente_sem_nome_23-3" data-name="Gradiente sem nome 23" x1="383.17" y1="329.5" x2="383.17" y2="266.03" xlink:href="#Gradiente_sem_nome_23"/>
    <linearGradient id="Gradiente_sem_nome_23-4" data-name="Gradiente sem nome 23" x1="246.42" y1="384.78" x2="246.42" y2="305.48" xlink:href="#Gradiente_sem_nome_23"/>
    <linearGradient id="Gradiente_sem_nome_23-5" data-name="Gradiente sem nome 23" x1="347.25" x2="347.25" y2="294.6" xlink:href="#Gradiente_sem_nome_23"/>
    <linearGradient id="Gradiente_sem_nome_10" data-name="Gradiente sem nome 10" x1="253.86" y1="318.37" x2="253.86" y2="115.87" gradientUnits="userSpaceOnUse">
      <stop offset="0" stop-color="#603a8e"/>
      <stop offset="1" stop-color="#4c2771"/>
    </linearGradient>
  </defs>
  <g class="cls-9">
    <g id="Camada_1">
      <g>
        <path class="cls-3" d="M304.49,242.37c8.62,0,15.63-10.92,15.63-24.34s-7.01-24.34-15.63-24.34-15.63,10.92-15.63,24.34,7.01,24.34,15.63,24.34Z"/>
        <path class="cls-13" d="M321.63,157.46c2.74,0,4.96-1.92,4.96-4.29s-2.23-4.29-4.96-4.29-4.96,1.92-4.96,4.29,2.23,4.29,4.96,4.29Z"/>
        <path class="cls-3" d="M200.08,242.37c8.62,0,15.63-10.92,15.63-24.34s-7.01-24.34-15.63-24.34-15.63,10.92-15.63,24.34,7.01,24.34,15.63,24.34Z"/>
        <path class="cls-13" d="M340.25,161.03c2.74,0,4.96-1.92,4.96-4.29s-2.23-4.29-4.96-4.29-4.96,1.92-4.96,4.29,2.23,4.29,4.96,4.29Z"/>
        <path class="cls-13" d="M165.7,166.82c2.74,0,4.96-1.92,4.96-4.29s-2.23-4.29-4.96-4.29-4.96,1.92-4.96,4.29,2.23,4.29,4.96,4.29Z"/>
        <path class="cls-8" d="M311.65,255.13c-8.1,0-14.93,3.59-14.93,7.84s6.84,7.84,14.93,7.84,14.94-3.59,14.94-7.84-6.84-7.84-14.94-7.84Z"/>
        <ellipse class="cls-13" cx="328.09" cy="168.32" rx="4.96" ry="4.29"/>
        <path class="cls-8" d="M195.64,270.74c8.1,0,14.94-3.59,14.94-7.84s-6.84-7.84-14.94-7.84-14.94,3.59-14.94,7.84,6.84,7.84,14.94,7.84Z"/>
        <path class="cls-4" d="M194.32,358.18c1.63,3.96,3.99,7.67,6.95,11.03-16.97,5.33-35.15,10.09-53.78,10.09h-.37c-9.95-.03-34.37-2.06-46.12-20.12-6.89-10.59-7.06-24.96-1.54-37.19,2.45-5.43,6.02-10.45,10.63-14.51,13.58-11.98,34.47-15.98,54.52-10.43.77.21,1.54.44,2.31.68.02.01.04.01.07.02,9.91,3.1,19.65,8.39,29.07,15.76.1.48.42.91.91,1.11.3.12.61.22.91.34,1.69,1.38,3.37,2.82,5.03,4.33-7.03,7.18-11.22,16.13-11.22,25.84,0,4.55.92,8.93,2.63,13.05Z"/>
        <path class="cls-6" d="M160.99,293.09c-19.63-4.11-39.56.38-52.88,12.14-3.4,3-6.28,6.49-8.59,10.27-1.44,2.36-2.66,4.83-3.67,7.38-.82-.77-1.63-1.56-2.38-2.38-9.43-10.27-13.66-25.16-11.04-38.85.29-1.53.7-3.09,1.22-4.63,2.74-8.06,8.59-15.77,17.09-17.5,6.22-1.26,12.88.89,18.63,3,7.5,2.76,14.97,5.89,22.21,9.3,5.33,7.69,11.84,14.84,19.41,21.27Z"/>
        <path class="cls-12" d="M406.13,327.38c-.67.73-1.37,1.43-2.1,2.12-.52-2.26-1.22-4.49-2.07-6.67-1.55-3.93-3.64-7.7-6.23-11.12-1.3-1.71-2.72-3.33-4.26-4.84-.56-.57-1.14-1.11-1.74-1.64-10.71-9.45-25.68-14.2-41.33-13.58,5.38-4.73,10.18-9.79,14.36-15.13,5.73-2.57,11.6-4.96,17.47-7.11,5.75-2.12,12.4-4.26,18.62-3,9.98,2.02,16.31,12.28,18.24,21.7.03.14.05.28.08.42,2.62,13.69-1.62,28.58-11.04,38.85Z"/>
        <path class="cls-2" d="M298.15,345.13c0,3.48-.59,6.87-1.7,10.09-5.83,16.99-26.06,29.56-50.03,29.56-22.43,0-41.57-11-48.73-26.33-1.94-4.17-3-8.65-3-13.32,0-21.87,23.21-39.65,51.73-39.65,17.41,0,32.83,6.63,42.21,16.77.06.22.17.43.34.61.15.16.33.27.52.34,5.47,6.29,8.66,13.83,8.66,21.93Z"/>
        <path class="cls-1" d="M396.84,359.18c-11.75,18.06-36.17,20.09-46.12,20.12h-.37c-20.25,0-40.3-5.73-57.73-11.35,3.35-4.1,5.83-8.68,7.23-13.57.85-2.98,1.3-6.08,1.3-9.25,0-8.6-3.29-16.61-8.94-23.32,13.08-12.51,26.87-20.85,41.01-24.76,3.57-.99,7.16-1.66,10.74-2.05.08,0,.16-.01.24-.03,16.43-1.74,32.44,2.71,43.54,12.51,5.65,4.99,9.75,11.4,12.13,18.28,3.92,11.32,3.16,23.9-3.03,33.42Z"/>
        <path class="cls-10" d="M253.86,115.87c-69.65,0-126.31,46.33-126.31,103.28,0,22.23,8.87,43.82,24.87,61.48,4.64,5.13,9.88,9.94,15.68,14.33,10.71,3.38,21.2,9.21,31.3,17.37,2.65,1.04,5.34,2.01,8.06,2.88,6.12-4.84,13.7-8.55,22.19-10.68,5.28-1.33,10.92-2.05,16.77-2.05,7.04,0,13.77,1.04,19.96,2.94,8.05,2.47,15.17,6.38,20.84,11.33.61.53,1.2,1.07,1.77,1.62,1.16-.28,2.31-.56,3.42-.85.36-.33.72-.65,1.08-.98,12.45-11.15,25.52-18.67,38.93-22.38,3.62-1,7.26-1.7,10.88-2.11,5.73-4.7,10.85-9.78,15.3-15.15.64-.75,1.25-1.51,1.85-2.28.07-.15.17-.28.3-.39,12.64-16.33,19.42-35.28,19.42-55.08,0-56.95-56.67-103.28-126.31-103.28ZM200.08,190.68c10.27,0,18.63,12.27,18.63,27.34s-8.36,27.35-18.63,27.35-18.64-12.27-18.64-27.35,8.36-27.34,18.64-27.34ZM195.64,252.06c10.06,0,17.94,4.76,17.94,10.84s-7.88,10.84-17.94,10.84-17.93-4.77-17.93-10.84,7.87-10.84,17.93-10.84ZM165.7,155.25c4.39,0,7.96,3.27,7.96,7.28s-3.57,7.29-7.96,7.29-7.97-3.27-7.97-7.29,3.58-7.28,7.97-7.28ZM340.25,149.46c4.39,0,7.96,3.27,7.96,7.29s-3.57,7.28-7.96,7.28-7.96-3.26-7.96-7.28,3.57-7.29,7.96-7.29ZM293.72,262.97c0-6.08,7.88-10.84,17.93-10.84s17.94,4.76,17.94,10.84-7.88,10.84-17.94,10.84-17.93-4.77-17.93-10.84ZM320.13,168.32c0-4.02,3.57-7.29,7.96-7.29s7.96,3.27,7.96,7.29-3.57,7.29-7.96,7.29-7.96-3.27-7.96-7.29ZM321.63,145.89c4.39,0,7.96,3.26,7.96,7.28s-3.57,7.29-7.96,7.29-7.96-3.27-7.96-7.29,3.57-7.28,7.96-7.28ZM304.49,190.68c10.28,0,18.64,12.27,18.64,27.34s-8.36,27.35-18.64,27.35-18.63-12.27-18.63-27.35,8.36-27.34,18.63-27.34ZM257.07,262.87c-.85.05-1.68.08-2.47.08-4.4,0-7.98-.83-10.89-2.52-4.6-2.67-7.21-7.72-6.34-12.28.16-.82.94-1.35,1.76-1.19.81.15,1.35.94,1.19,1.75-.71,3.72,1.93,7.4,4.9,9.13,2.91,1.68,6.72,2.35,11.66,2.03,4.18-.26,6.96-1.21,8.75-2.99,2.28-2.26,2.55-5.98,2.09-8.47-.14-.82.4-1.6,1.21-1.75.81-.15,1.6.39,1.74,1.21.62,3.37.17,8.07-2.93,11.14-3.06,3.04-7.55,3.66-10.67,3.86Z"/>
      </g>
      <g id="Camada_2">
        <path class="cls-5" d="M420.12,287.97c-2.01-10.51-9.18-22.17-20.67-24.5-6.99-1.42-14.12.87-20.25,3.12-4.3,1.58-8.61,3.29-12.86,5.1,10.99-15.83,16.83-33.81,16.83-52.55,0-58.6-58.01-106.28-129.31-106.28s-129.31,47.67-129.31,106.28c0,16.8,4.89,33.22,13.95,47.96-5.95-2.68-12.01-5.16-18.1-7.4-6.14-2.25-13.27-4.54-20.25-3.12-11.49,2.33-18.66,13.99-20.67,24.5-2.79,14.61,1.72,30.49,11.78,41.44,1.09,1.19,2.28,2.33,3.52,3.42-3.76,11.88-2.77,24.91,3.71,34.87,12.55,19.29,38.19,21.45,48.62,21.49.13,0,.25,0,.38,0,19.55,0,38.49-5.1,56.09-10.68,10.03,9.83,25.5,16.16,42.84,16.16s34.07-6.84,44.05-17.37c17.93,5.81,38.72,11.89,59.89,11.89.12,0,.25,0,.37,0,10.44-.04,36.08-2.2,48.62-21.49,5.23-8.03,6.87-18.06,5.35-27.88,1.28-1.12,2.51-2.3,3.64-3.53,10.06-10.96,14.57-26.84,11.78-41.44ZM253.86,115.87c69.65,0,126.31,46.33,126.31,103.28,0,19.81-6.77,38.75-19.42,55.08-.12.11-.22.24-.3.39-4.87,6.23-10.6,12.07-17.14,17.43-3.63.41-7.27,1.11-10.88,2.11-13.8,3.82-27.24,11.68-40.01,23.36-1.12.29-2.26.58-3.42.85-10.04-9.68-25.39-15.89-42.57-15.89-15.24,0-29.03,4.88-38.96,12.74-2.71-.88-5.41-1.85-8.06-2.88-10.1-8.16-20.59-14-31.3-17.38-25.77-19.5-40.55-47.12-40.55-75.81,0-56.95,56.66-103.28,126.31-103.28ZM93.47,320.5c-9.43-10.27-13.66-25.16-11.04-38.85,1.82-9.53,8.19-20.07,18.32-22.12,6.21-1.26,12.87.89,18.62,3,7.5,2.75,14.97,5.88,22.21,9.3,5.33,7.68,11.84,14.84,19.41,21.27-19.63-4.11-39.55.38-52.88,12.14-5.52,4.87-9.65,11.01-12.25,17.65-.83-.77-1.63-1.56-2.39-2.38ZM147.49,379.3c-.12,0-.25,0-.37,0-9.95-.03-34.37-2.06-46.12-20.12-9.95-15.3-5.87-38.49,9.09-51.7,13.58-11.98,34.47-15.98,54.52-10.43.77.21,1.54.44,2.3.68.02,0,.05.01.07.02,9.91,3.1,19.65,8.38,29.08,15.76.09.48.42.91.91,1.11.3.12.61.23.91.35,1.69,1.38,3.37,2.82,5.03,4.33-7.03,7.18-11.22,16.13-11.22,25.84,0,8.93,3.54,17.22,9.58,24.08-16.97,5.33-35.15,10.1-53.79,10.1ZM246.42,384.78c-28.52,0-51.73-17.79-51.73-39.65s23.21-39.65,51.73-39.65c17.41,0,32.83,6.63,42.21,16.77.07.22.17.44.35.62.15.16.33.27.52.34,5.46,6.28,8.66,13.82,8.66,21.93,0,21.86-23.21,39.65-51.73,39.65ZM396.84,359.18c-11.75,18.06-36.17,20.09-46.12,20.12-.12,0-.24,0-.36,0-20.26,0-40.3-5.73-57.73-11.35,5.39-6.6,8.53-14.43,8.53-22.82s-3.29-16.61-8.94-23.31c13.08-12.52,26.87-20.85,41.01-24.77,3.57-.99,7.16-1.66,10.73-2.05.08,0,.16-.01.25-.03,16.43-1.74,32.43,2.71,43.54,12.51,14.97,13.21,19.05,36.4,9.09,51.7ZM406.13,327.38c-.66.72-1.37,1.43-2.09,2.11-2.12-9.12-6.99-17.81-14.3-24.27-10.71-9.45-25.68-14.2-41.33-13.58,5.38-4.73,10.18-9.79,14.36-15.13,5.73-2.57,11.6-4.96,17.47-7.12,5.75-2.11,12.4-4.26,18.62-3,10.12,2.06,16.5,12.59,18.32,22.12,2.62,13.69-1.61,28.58-11.04,38.85Z"/>
        <path class="cls-8" d="M195.64,273.74c10.06,0,17.94-4.76,17.94-10.84s-7.88-10.84-17.94-10.84-17.94,4.76-17.94,10.84,7.88,10.84,17.94,10.84ZM195.64,255.06c8.1,0,14.94,3.59,14.94,7.84s-6.84,7.84-14.94,7.84-14.94-3.59-14.94-7.84,6.84-7.84,14.94-7.84Z"/>
        <path class="cls-8" d="M311.65,252.13c-10.06,0-17.93,4.76-17.93,10.84s7.88,10.84,17.93,10.84,17.94-4.76,17.94-10.84-7.88-10.84-17.94-10.84ZM311.65,270.81c-8.1,0-14.93-3.59-14.93-7.84s6.84-7.84,14.93-7.84,14.94,3.59,14.94,7.84-6.84,7.84-14.94,7.84Z"/>
        <path class="cls-13" d="M165.7,169.82c4.39,0,7.96-3.27,7.96-7.29s-3.57-7.29-7.96-7.29-7.96,3.27-7.96,7.29,3.57,7.29,7.96,7.29ZM165.7,158.25c2.74,0,4.96,1.92,4.96,4.29s-2.23,4.29-4.96,4.29-4.96-1.92-4.96-4.29,2.23-4.29,4.96-4.29Z"/>
        <path class="cls-13" d="M321.63,160.46c4.39,0,7.96-3.27,7.96-7.29s-3.57-7.29-7.96-7.29-7.96,3.27-7.96,7.29,3.57,7.29,7.96,7.29ZM321.63,148.89c2.74,0,4.96,1.92,4.96,4.29s-2.23,4.29-4.96,4.29-4.96-1.92-4.96-4.29,2.23-4.29,4.96-4.29Z"/>
        <path class="cls-13" d="M340.25,164.03c4.39,0,7.96-3.27,7.96-7.29s-3.57-7.29-7.96-7.29-7.96,3.27-7.96,7.29,3.57,7.29,7.96,7.29ZM340.25,152.46c2.74,0,4.96,1.92,4.96,4.29s-2.23,4.29-4.96,4.29-4.96-1.92-4.96-4.29,2.23-4.29,4.96-4.29Z"/>
        <path class="cls-13" d="M328.09,161.03c-4.39,0-7.96,3.27-7.96,7.29s3.57,7.29,7.96,7.29,7.96-3.27,7.96-7.29-3.57-7.29-7.96-7.29ZM328.09,172.61c-2.74,0-4.96-1.92-4.96-4.29s2.23-4.29,4.96-4.29,4.96,1.92,4.96,4.29-2.23,4.29-4.96,4.29Z"/>
        <path class="cls-3" d="M200.08,245.37c10.28,0,18.63-12.27,18.63-27.34s-8.36-27.34-18.63-27.34-18.63,12.27-18.63,27.34,8.36,27.34,18.63,27.34ZM200.08,193.68c8.62,0,15.63,10.92,15.63,24.34s-7.01,24.34-15.63,24.34-15.63-10.92-15.63-24.34,7.01-24.34,15.63-24.34Z"/>
        <path class="cls-3" d="M304.49,245.37c10.28,0,18.63-12.27,18.63-27.34s-8.36-27.34-18.63-27.34-18.63,12.27-18.63,27.34,8.36,27.34,18.63,27.34ZM304.49,193.68c8.62,0,15.63,10.92,15.63,24.34s-7.01,24.34-15.63,24.34-15.63-10.92-15.63-24.34,7.01-24.34,15.63-24.34Z"/>
        <path class="cls-11" d="M243.71,260.43c2.91,1.69,6.49,2.52,10.88,2.52.8,0,1.62-.03,2.48-.08,3.12-.2,7.61-.82,10.67-3.85,3.1-3.08,3.55-7.78,2.93-11.15-.15-.81-.94-1.35-1.75-1.21-.81.15-1.35.93-1.21,1.75.46,2.5.18,6.22-2.09,8.48-1.79,1.77-4.57,2.72-8.75,2.99-4.94.32-8.75-.35-11.66-2.04-2.97-1.72-5.61-5.41-4.9-9.13.15-.81-.38-1.6-1.19-1.75-.82-.16-1.6.38-1.75,1.19-.87,4.56,1.74,9.61,6.34,12.28Z"/>
      </g>
      <path class="cls-7" d="M287.74,222.82c1.05,5.06,3.26,10.02,7.08,13.49s9.42,5.22,14.33,3.65c5.38-1.73,8.94-6.95,10.71-12.31s2.16-11.08,3.55-16.55c1.25,5.88,1.86,11.99.83,17.91s-3.84,11.68-8.52,15.47c-4.67,3.78-11.33,5.31-16.93,3.12-4.25-1.66-7.54-5.25-9.64-9.29s-3.13-8.56-3.91-13.05c-.45-2.59-2.26-10.59.41-12.47,1.81-1.27,1.16,1.97,1.23,3.2.14,2.29.39,4.59.85,6.84Z"/>
      <path class="cls-7" d="M183.32,223.55c1.05,5.06,3.26,10.02,7.08,13.49s9.42,5.22,14.33,3.65c5.38-1.73,8.94-6.95,10.71-12.31s2.16-11.08,3.55-16.55c1.25,5.88,1.86,11.99.83,17.91s-3.84,11.68-8.52,15.47c-4.67,3.78-11.33,5.31-16.93,3.12-4.25-1.66-7.54-5.25-9.64-9.29s-3.13-8.56-3.91-13.05c-.45-2.59-2.26-10.59.41-12.47,1.81-1.27,1.16,1.97,1.23,3.2.14,2.29.39,4.59.85,6.84Z"/>
      <path class="cls-7" d="M245.24,258.73c3.39,1.76,7.23,2.51,11.05,2.64,2.88.1,5.94-.21,8.25-1.92,2.9-2.16,3.93-5.97,4.78-9.48,1.17,2.63,1.09,5.79-.22,8.36-1.33,2.61-3.79,4.49-6.42,5.78-5.35,2.62-11.95,2.99-17.19.16-3.6-1.94-7.81-6.71-7.46-11.1,1.24.03,2.18,1.74,3.02,2.55,1.24,1.21,2.68,2.22,4.21,3.02Z"/>
      <path class="cls-7" d="M175.98,269.53c-1.06-1.06-1.82-2.53-1.83-4.09s.86-3.14,2.22-3.67c2.01-.77,4.05.81,5.89,1.97,3.83,2.41,8.41,3.18,12.83,2.85s8.72-1.7,12.89-3.33c1.67-.65,3.64-1.32,5.14-.29,1.51,1.04,1.75,3.4,1.15,5.21-1.29,3.86-5.23,5.8-8.85,7.08-5.49,1.94-11.74,1.79-17.43.75s-10.82-3.4-12.71-9.28"/>
      <path class="cls-7" d="M292.55,269.53c-1.06-1.06-1.82-2.53-1.83-4.09s.86-3.14,2.22-3.67c2.01-.77,4.05.81,5.89,1.97,3.83,2.41,8.41,3.18,12.83,2.85s8.72-1.7,12.89-3.33c1.67-.65,3.64-1.32,5.14-.29,1.51,1.04,1.75,3.4,1.15,5.21-1.29,3.86-5.23,5.8-8.85,7.08-5.49,1.94-11.74,1.79-17.43.75s-10.82-3.4-12.71-9.28"/>
      <path class="cls-7" d="M208.07,300.99c7.12,1.55,14.33,2.73,21.58,3.54-8.49,2.13-16.07,5.84-22.19,10.68-2.72-.87-5.41-1.84-8.06-2.88-10.1-8.16-20.59-13.99-31.3-17.37-5.8-4.39-11.04-9.2-15.68-14.33.83.08,1.81.57,2.73.98,5.77,2.58,11.28,5.68,17.13,8.12,11.56,4.83,23.56,8.59,35.79,11.26Z"/>
      <path class="cls-7" d="M358.6,276.9c-4.45,5.37-9.57,10.45-15.3,15.15-3.62.41-7.26,1.11-10.88,2.11-13.41,3.71-29.24,14.8-41.69,25.95-2.08.11-1.41-3.4-3.51-3.36-5.67-4.95-12.79-8.86-20.84-11.33,5.48-.33,10.95-.9,16.39-1.68,13.68-1.97,27.17-5.34,40.14-10.12,13.63-5.02,31.19-8.93,38.73-21.34.66,2.57-2.88,2-3.04,4.62Z"/>
      <path class="cls-7" d="M82.26,275.62c-.03.07-.07.15-.11.23v-.34l.11.11Z"/>
      <path class="cls-7" d="M95.85,322.88c-.82-.77-1.63-1.56-2.38-2.38-9.43-10.27-13.66-25.16-11.04-38.85.29-1.53.7-3.09,1.22-4.63,2.24,11.09,14.16,22.93,21.31,34.58-1.44,2.36-8.1,8.73-9.11,11.28Z"/>
      <path class="cls-7" d="M194.32,358.18c1.63,3.96,3.99,7.67,6.95,11.03-16.97,5.33-35.15,10.09-53.78,10.09h-.37c-9.95-.03-34.37-2.06-46.12-20.12-6.89-10.59-7.06-24.96-1.54-37.19-.05,4.1.12,8.17,1.88,11.8,3.05,6.29,10.02,9.57,16.62,11.89,23.8,8.36,49.27,10.39,74.41,12.35.65.05,1.3.1,1.95.15Z"/>
      <path class="cls-7" d="M297.24,352.53c-5.83,16.99-26.85,32.25-50.82,32.25-22.43,0-44.57-16.92-51.73-32.25,13.5,4.48,28.67,11.83,42.51,11.15,16.65-.82,31.46.24,46.98-4.39,4.12-1.23,8.94-5.56,13.06-6.76Z"/>
      <path class="cls-7" d="M399.87,325.76c3.92,11.32,3.16,23.9-3.03,33.42-11.75,18.06-36.17,20.09-46.12,20.12h-.37c-20.25,0-40.3-5.73-57.73-11.35,3.35-4.1,5.83-8.68,7.23-13.57,1.35-.29,2.76-.96,4.11-.62,6.98,1.75,14.04,1.51,21.04,2.63,28.01,4.49,57.92-8,74.87-30.63Z"/>
      <path class="cls-7" d="M406.13,327.38c-.67.73-1.37,1.43-2.1,2.12-.52-2.26-1.22-4.49-2.07-6.67.59-.89-3.07,1.17-1.34-1.53-2.22-3.17-4.08-2.93-4.89-9.59-.29-2.43-3.98-2.86-6.16-3.99.64-.27,1.27-.55,1.9-.85,9.68-4.45,18.44-10.89,25.62-18.76.03.14.05.28.08.42,2.62,13.69-1.62,28.58-11.04,38.85Z"/>
    </g>
  </g>
</svg>