<?xml version="1.0" encoding="UTF-8"?>
<svg xmlns="http://www.w3.org/2000/svg" xmlns:xlink="http://www.w3.org/1999/xlink" viewBox="0 0 500 500">
  <defs>
    <style>
      .cls-1 {
        fill: url(#Gradiente_sem_nome_16-2);
      }

      .cls-2 {
        fill: #341d49;
      }

      .cls-3 {
        fill: #fbfbfb;
      }

      .cls-4 {
        fill: url(#Gradiente_sem_nome_16-5);
      }

      .cls-5 {
        fill: #442659;
      }

      .cls-6 {
        fill: #eea699;
        mix-blend-mode: multiply;
      }

      .cls-7 {
        isolation: isolate;
      }

      .cls-8 {
        fill: url(#Gradiente_sem_nome_40);
      }

      .cls-9 {
        fill: #f087a9;
      }

      .cls-10 {
        fill: url(#Gradiente_sem_nome_16-4);
      }

      .cls-11 {
        fill: url(#Gradiente_sem_nome_16);
      }

      .cls-12 {
        fill: url(#Gradiente_sem_nome_16-3);
      }

      .cls-13 {
        fill: #603a8e;
      }
    </style>
    <linearGradient id="Gradiente_sem_nome_16" data-name="Gradiente sem nome 16" x1="383.17" y1="329.5" x2="383.17" y2="266.03" gradientUnits="userSpaceOnUse">
      <stop offset="0" stop-color="#d7418f"/>
      <stop offset=".51" stop-color="#603a8e"/>
    </linearGradient>
    <linearGradient id="Gradiente_sem_nome_16-2" data-name="Gradiente sem nome 16" x1="347.25" y1="379.3" x2="347.25" y2="294.6" xlink:href="#Gradiente_sem_nome_16"/>
    <linearGradient id="Gradiente_sem_nome_16-3" data-name="Gradiente sem nome 16" x1="121.33" y1="322.88" x2="121.33" y2="259.15" xlink:href="#Gradiente_sem_nome_16"/>
    <linearGradient id="Gradiente_sem_nome_40" data-name="Gradiente sem nome 40" x1="253.86" y1="318.37" x2="253.86" y2="115.87" gradientUnits="userSpaceOnUse">
      <stop offset="0" stop-color="#603a8e"/>
      <stop offset="1" stop-color="#4c2670"/>
    </linearGradient>
    <linearGradient id="Gradiente_sem_nome_16-4" data-name="Gradiente sem nome 16" x1="149.23" y1="379.3" x2="149.23" y2="294.59" xlink:href="#Gradiente_sem_nome_16"/>
    <linearGradient id="Gradiente_sem_nome_16-5" data-name="Gradiente sem nome 16" x1="246.42" y1="384.78" x2="246.42" y2="305.48" xlink:href="#Gradiente_sem_nome_16"/>
  </defs>
  <g class="cls-7">
    <g id="Camada_1">
      <g>
        <path class="cls-13" d="M321.63,157.46c2.74,0,4.96-1.92,4.96-4.29s-2.23-4.29-4.96-4.29-4.96,1.92-4.96,4.29,2.23,4.29,4.96,4.29Z"/>
        <path class="cls-3" d="M197.53,243.95c9.68,0,17.55-11.7,17.55-26.08s-7.87-26.08-17.55-26.08-17.55,11.7-17.55,26.08,7.87,26.08,17.55,26.08Z"/>
        <path class="cls-3" d="M307.63,243.95c9.68,0,17.55-11.7,17.55-26.08s-7.88-26.08-17.55-26.08-17.55,11.7-17.55,26.08,7.87,26.08,17.55,26.08Z"/>
        <path class="cls-13" d="M340.25,161.03c2.74,0,4.96-1.92,4.96-4.29s-2.23-4.29-4.96-4.29-4.96,1.92-4.96,4.29,2.23,4.29,4.96,4.29Z"/>
        <path class="cls-9" d="M195.64,255.06c-8.1,0-14.94,3.59-14.94,7.84s6.84,7.84,14.94,7.84,14.94-3.59,14.94-7.84-6.84-7.84-14.94-7.84Z"/>
        <ellipse class="cls-13" cx="328.09" cy="168.32" rx="4.96" ry="4.29"/>
        <path class="cls-9" d="M311.65,255.13c-8.1,0-14.93,3.59-14.93,7.84s6.84,7.84,14.93,7.84,14.94-3.59,14.94-7.84-6.84-7.84-14.94-7.84Z"/>
        <path class="cls-11" d="M406.13,327.38c-.67.73-1.37,1.43-2.1,2.12-.46-1.98-1.05-3.94-1.77-5.86-.23-.64-.49-1.27-.75-1.9-2.11-5-5.09-9.68-8.9-13.71-.91-.97-1.87-1.91-2.88-2.8-10.71-9.45-25.68-14.2-41.33-13.58,5.38-4.73,10.18-9.79,14.36-15.13,5.73-2.57,11.6-4.96,17.47-7.11,5.75-2.12,12.4-4.26,18.62-3,5.5,1.11,9.89,4.73,13.05,9.33,2.66,3.87,4.44,8.43,5.27,12.79,2.62,13.69-1.62,28.58-11.04,38.85Z"/>
        <path class="cls-1" d="M396.84,359.18c-11.75,18.06-36.17,20.09-46.12,20.12h-.37c-20.25,0-40.3-5.73-57.73-11.35,4.75-5.82,7.76-12.6,8.39-19.87.1-.98.14-1.96.14-2.95,0-8.6-3.29-16.61-8.94-23.32,13.08-12.51,26.87-20.85,41.01-24.76,3.57-.99,7.16-1.66,10.74-2.05.08,0,.16-.01.24-.03,16.43-1.74,32.44,2.71,43.54,12.51,5.84,5.16,10.03,11.84,12.37,18.98,3.65,11.14,2.79,23.4-3.27,32.72Z"/>
        <path class="cls-12" d="M160.99,293.09c-18.91-3.96-38.1.06-51.39,10.88-.51.41-1,.83-1.49,1.26-.6.53-1.18,1.07-1.74,1.62-.3.29-.59.59-.88.89-.03.03-.06.06-.08.1-4.19,4.38-7.4,9.54-9.56,15.04-.82-.77-1.63-1.56-2.38-2.38-9.43-10.27-13.66-25.16-11.04-38.85.19-.99.43-2,.72-3,2.47-8.63,8.52-17.28,17.59-19.13,6.22-1.26,12.88.89,18.63,3,7.5,2.76,14.97,5.89,22.21,9.3,5.33,7.69,11.84,14.84,19.41,21.27Z"/>
        <path class="cls-8" d="M253.86,115.87c-69.65,0-126.31,46.33-126.31,103.28,0,24.3,10.6,47.82,29.5,66.3,3.42,3.34,7.1,6.52,11.05,9.51,10.71,3.38,21.2,9.21,31.3,17.37,2.65,1.04,5.34,2.01,8.06,2.88,6.5-5.14,14.65-9,23.78-11.06,4.82-1.09,9.92-1.67,15.18-1.67s10.59.61,15.5,1.75c10.78,2.48,20.18,7.49,27.07,14.14,1.16-.28,2.31-.56,3.42-.85,12.77-11.69,26.21-19.54,40.01-23.36,3.62-1,7.26-1.7,10.88-2.11,6.09-4.99,11.48-10.41,16.12-16.15.35-.42.69-.85,1.03-1.28.07-.15.17-.28.3-.39,12.64-16.33,19.42-35.28,19.42-55.08,0-56.95-56.67-103.28-126.31-103.28ZM197.53,188.8c11.34,0,20.56,13.04,20.56,29.07s-9.22,29.08-20.56,29.08-20.55-13.05-20.55-29.08,9.22-29.07,20.55-29.07ZM177.71,262.9c0-6.08,7.87-10.84,17.93-10.84s17.94,4.76,17.94,10.84-7.88,10.84-17.94,10.84-17.93-4.77-17.93-10.84ZM165.7,155.25c4.39,0,7.96,3.27,7.96,7.28s-3.57,7.29-7.96,7.29-7.97-3.27-7.97-7.29,3.58-7.28,7.97-7.28ZM311.65,273.81c-10.05,0-17.93-4.77-17.93-10.84s7.88-10.84,17.93-10.84,17.94,4.76,17.94,10.84-7.88,10.84-17.94,10.84ZM328.09,175.61c-4.39,0-7.96-3.27-7.96-7.29s3.57-7.29,7.96-7.29,7.96,3.27,7.96,7.29-3.57,7.29-7.96,7.29ZM340.25,149.46c4.39,0,7.96,3.27,7.96,7.29s-3.57,7.28-7.96,7.28-7.96-3.26-7.96-7.28,3.57-7.29,7.96-7.29ZM321.63,145.89c4.39,0,7.96,3.26,7.96,7.28s-3.57,7.29-7.96,7.29-7.96-3.27-7.96-7.29,3.57-7.28,7.96-7.28ZM307.63,188.8c11.33,0,20.55,13.04,20.55,29.07s-9.22,29.08-20.55,29.08-20.55-13.05-20.55-29.08,9.22-29.07,20.55-29.07ZM241.39,248.51h-.02c-.82,0-1.49-.66-1.5-1.48-.02-.83.64-1.51,1.47-1.52l26.41-.44h.02c.82,0,1.49.66,1.5,1.47.02.83-.64,1.52-1.47,1.53l-26.41.44Z"/>
        <path class="cls-10" d="M192.37,351.83c1.29,6.37,4.4,12.27,8.9,17.38-16.97,5.33-35.15,10.09-53.78,10.09h-.37c-9.95-.03-34.37-2.06-46.12-20.12-7.86-12.07-6.98-29.04,1.09-42.16,2.16-3.51,4.84-6.75,8-9.54,13.58-11.98,34.47-15.98,54.52-10.43.77.21,1.54.44,2.31.68.02.01.04.01.07.02,9.91,3.1,19.65,8.39,29.07,15.76.1.48.42.91.91,1.11.3.12.61.22.91.34,1.69,1.38,3.37,2.82,5.03,4.33-7.03,7.18-11.22,16.13-11.22,25.84,0,2.28.23,4.52.68,6.7Z"/>
        <path class="cls-13" d="M165.7,166.82c2.74,0,4.96-1.92,4.96-4.29s-2.23-4.29-4.96-4.29-4.96,1.92-4.96,4.29,2.23,4.29,4.96,4.29Z"/>
        <path class="cls-4" d="M298.15,345.13c0,1.5-.11,2.98-.33,4.43-2.87,19.78-24.83,35.22-51.4,35.22-24.96,0-45.84-13.62-50.68-31.67h0c-.69-2.59-1.05-5.25-1.05-7.98,0-21.87,23.21-39.65,51.73-39.65,17.41,0,32.83,6.63,42.21,16.77.06.22.17.43.34.61.15.16.33.27.52.34,5.47,6.29,8.66,13.83,8.66,21.93Z"/>
      </g>
      <g id="Camada_2">
        <path class="cls-5" d="M399.45,263.47c-6.99-1.42-14.12.87-20.25,3.12-4.3,1.58-8.61,3.29-12.86,5.1,10.99-15.83,16.83-33.81,16.83-52.55,0-58.6-58.01-106.28-129.31-106.28s-129.31,47.67-129.31,106.28c0,16.8,4.89,33.22,13.95,47.96-5.95-2.68-12.01-5.16-18.1-7.4-6.14-2.25-13.27-4.54-20.25-3.12-11.49,2.33-18.66,13.99-20.67,24.5-2.79,14.61,1.72,30.49,11.78,41.44,1.09,1.19,2.28,2.33,3.52,3.42-3.76,11.88-2.77,24.91,3.71,34.87,12.55,19.29,38.19,21.45,48.62,21.49.13,0,.25,0,.38,0,19.55,0,38.49-5.1,56.09-10.68,10.03,9.83,25.5,16.16,42.84,16.16s34.07-6.84,44.05-17.37c17.93,5.81,38.72,11.89,59.89,11.89.12,0,.25,0,.37,0,10.44-.04,36.08-2.2,48.62-21.49,5.23-8.03,6.87-18.06,5.35-27.88,1.28-1.12,2.51-2.3,3.64-3.53,10.06-10.96,14.57-26.84,11.78-41.44-2.01-10.51-9.18-22.17-20.67-24.5ZM253.86,115.87c69.65,0,126.31,46.33,126.31,103.28,0,19.81-6.77,38.75-19.42,55.08-.12.11-.22.24-.3.39-4.87,6.23-10.6,12.07-17.14,17.43-3.63.41-7.27,1.11-10.88,2.11-13.8,3.82-27.24,11.68-40.01,23.36-1.12.29-2.26.58-3.42.85-10.04-9.68-25.39-15.89-42.57-15.89-15.24,0-29.03,4.88-38.96,12.74-2.71-.88-5.41-1.85-8.06-2.88-10.1-8.16-20.59-14-31.3-17.38-25.77-19.5-40.55-47.12-40.55-75.81,0-56.95,56.66-103.28,126.31-103.28ZM93.47,320.5c-9.43-10.27-13.66-25.16-11.04-38.85,1.82-9.53,8.19-20.07,18.32-22.12,6.21-1.26,12.87.89,18.62,3,7.5,2.75,14.97,5.88,22.21,9.3,5.33,7.68,11.84,14.84,19.41,21.27-19.63-4.11-39.55.38-52.88,12.14-5.52,4.87-9.65,11.01-12.25,17.65-.83-.77-1.63-1.56-2.39-2.38ZM147.49,379.3c-.12,0-.25,0-.37,0-9.95-.03-34.37-2.06-46.12-20.12-9.95-15.3-5.87-38.49,9.09-51.7,13.58-11.98,34.47-15.98,54.52-10.43.77.21,1.54.44,2.3.68.02,0,.05.01.07.02,9.91,3.1,19.65,8.38,29.08,15.76.09.48.42.91.91,1.11.3.12.61.23.91.35,1.69,1.38,3.37,2.82,5.03,4.33-7.03,7.18-11.22,16.13-11.22,25.84,0,8.93,3.54,17.22,9.58,24.08-16.97,5.33-35.15,10.1-53.79,10.1ZM246.42,384.78c-28.52,0-51.73-17.79-51.73-39.65s23.21-39.65,51.73-39.65c17.41,0,32.83,6.63,42.21,16.77.07.22.17.44.35.62.15.16.33.27.52.34,5.46,6.28,8.66,13.82,8.66,21.93,0,21.86-23.21,39.65-51.73,39.65ZM396.84,359.18c-11.75,18.06-36.17,20.09-46.12,20.12-.12,0-.24,0-.36,0-20.26,0-40.3-5.73-57.73-11.35,5.39-6.6,8.53-14.43,8.53-22.82s-3.29-16.61-8.94-23.31c13.08-12.52,26.87-20.85,41.01-24.77,3.57-.99,7.16-1.66,10.73-2.05.08,0,.16-.01.25-.03,16.43-1.74,32.43,2.71,43.54,12.51,14.97,13.21,19.05,36.4,9.09,51.7ZM406.13,327.38c-.66.72-1.37,1.43-2.09,2.11-2.12-9.12-6.99-17.81-14.3-24.27-10.71-9.45-25.68-14.2-41.33-13.58,5.38-4.73,10.18-9.79,14.36-15.13,5.73-2.57,11.6-4.96,17.47-7.12,5.75-2.11,12.4-4.26,18.62-3,10.12,2.06,16.5,12.59,18.32,22.12,2.62,13.69-1.61,28.58-11.04,38.85Z"/>
        <path class="cls-9" d="M195.64,252.06c-10.06,0-17.94,4.76-17.94,10.84s7.88,10.84,17.94,10.84,17.94-4.76,17.94-10.84-7.88-10.84-17.94-10.84ZM195.64,270.74c-8.1,0-14.94-3.59-14.94-7.84s6.84-7.84,14.94-7.84,14.94,3.59,14.94,7.84-6.84,7.84-14.94,7.84Z"/>
        <path class="cls-9" d="M311.65,252.13c-10.06,0-17.93,4.76-17.93,10.84s7.88,10.84,17.93,10.84,17.94-4.76,17.94-10.84-7.88-10.84-17.94-10.84ZM311.65,270.81c-8.1,0-14.93-3.59-14.93-7.84s6.84-7.84,14.93-7.84,14.94,3.59,14.94,7.84-6.84,7.84-14.94,7.84Z"/>
        <path class="cls-13" d="M165.7,169.82c4.39,0,7.96-3.27,7.96-7.29s-3.57-7.29-7.96-7.29-7.96,3.27-7.96,7.29,3.57,7.29,7.96,7.29ZM165.7,158.25c2.74,0,4.96,1.92,4.96,4.29s-2.23,4.29-4.96,4.29-4.96-1.92-4.96-4.29,2.23-4.29,4.96-4.29Z"/>
        <path class="cls-13" d="M321.63,160.46c4.39,0,7.96-3.27,7.96-7.29s-3.57-7.29-7.96-7.29-7.96,3.27-7.96,7.29,3.57,7.29,7.96,7.29ZM321.63,148.89c2.74,0,4.96,1.92,4.96,4.29s-2.23,4.29-4.96,4.29-4.96-1.92-4.96-4.29,2.23-4.29,4.96-4.29Z"/>
        <path class="cls-13" d="M340.25,164.03c4.39,0,7.96-3.27,7.96-7.29s-3.57-7.29-7.96-7.29-7.96,3.27-7.96,7.29,3.57,7.29,7.96,7.29ZM340.25,152.46c2.74,0,4.96,1.92,4.96,4.29s-2.23,4.29-4.96,4.29-4.96-1.92-4.96-4.29,2.23-4.29,4.96-4.29Z"/>
        <path class="cls-13" d="M328.09,161.03c-4.39,0-7.96,3.27-7.96,7.29s3.57,7.29,7.96,7.29,7.96-3.27,7.96-7.29-3.57-7.29-7.96-7.29ZM328.09,172.61c-2.74,0-4.96-1.92-4.96-4.29s2.23-4.29,4.96-4.29,4.96,1.92,4.96,4.29-2.23,4.29-4.96,4.29Z"/>
        <path class="cls-3" d="M197.53,246.95c11.33,0,20.55-13.04,20.55-29.08s-9.22-29.08-20.55-29.08-20.55,13.04-20.55,29.08,9.22,29.08,20.55,29.08ZM197.53,191.8c9.68,0,17.55,11.7,17.55,26.08s-7.87,26.08-17.55,26.08-17.55-11.7-17.55-26.08,7.87-26.08,17.55-26.08Z"/>
        <path class="cls-3" d="M307.63,246.95c11.33,0,20.55-13.04,20.55-29.08s-9.22-29.08-20.55-29.08-20.55,13.04-20.55,29.08,9.22,29.08,20.55,29.08ZM307.63,191.8c9.68,0,17.55,11.7,17.55,26.08s-7.88,26.08-17.55,26.08-17.55-11.7-17.55-26.08,7.87-26.08,17.55-26.08Z"/>
        <path class="cls-2" d="M241.37,248.51h.03l26.41-.44c.83-.01,1.49-.7,1.48-1.52-.01-.82-.68-1.48-1.5-1.48h-.03l-26.41.44c-.83.01-1.49.7-1.48,1.52.01.82.68,1.48,1.5,1.48Z"/>
        <path class="cls-6" d="M180.45,223.79c1.07,4.97,3.34,9.85,7.24,13.26s9.61,5.14,14.63,3.6c5.48-1.69,9.11-6.81,10.91-12.08s2.19-10.88,3.6-16.25c1.28,5.78,1.91,11.78.87,17.6s-3.91,11.47-8.67,15.18c-4.76,3.71-11.55,5.2-17.27,3.04-4.33-1.64-7.69-5.16-9.84-9.14s-3.2-8.42-4.01-12.83c-.46-2.55-2.31-10.41.4-12.25,1.84-1.24,1.19,1.94,1.26,3.15.14,2.25.4,4.51.88,6.72Z"/>
        <path class="cls-6" d="M290.67,224.97c1.07,4.97,3.34,9.85,7.24,13.26,3.9,3.42,9.61,5.14,14.63,3.6,5.48-1.69,9.11-6.81,10.91-12.08s2.19-10.88,3.6-16.25c1.28,5.78,1.91,11.78.87,17.6s-3.91,11.47-8.67,15.18c-4.76,3.71-11.55,5.2-17.27,3.04-4.33-1.64-7.69-5.16-9.84-9.14s-3.2-8.42-4.01-12.83c-.46-2.55-2.31-10.41.4-12.25,1.84-1.24,1.19,1.94,1.26,3.15.14,2.25.4,4.51.88,6.72Z"/>
        <path class="cls-6" d="M177.26,269.6c-1.06-1.06-1.82-2.53-1.83-4.09s.86-3.14,2.22-3.67c2.01-.77,4.05.81,5.89,1.97,3.83,2.41,8.41,3.18,12.83,2.85s8.72-1.7,12.89-3.33c1.67-.65,3.64-1.32,5.14-.29,1.51,1.04,1.75,3.4,1.15,5.21-1.29,3.86-5.23,5.8-8.85,7.08-5.49,1.94-11.74,1.79-17.43.75s-10.82-3.4-12.71-9.28"/>
        <path class="cls-6" d="M293.27,269.6c-1.06-1.06-1.82-2.53-1.83-4.09s.86-3.14,2.22-3.67c2.01-.77,4.05.81,5.89,1.97,3.83,2.41,8.41,3.18,12.83,2.85s8.72-1.7,12.89-3.33c1.67-.65,3.64-1.32,5.14-.29,1.51,1.04,1.75,3.4,1.15,5.21-1.29,3.86-5.23,5.8-8.85,7.08-5.49,1.94-11.74,1.79-17.43.75s-10.82-3.4-12.71-9.28"/>
        <path class="cls-6" d="M200.85,299.94c10.02,2.09,20.18,3.5,30.39,4.21-9.13,2.06-17.28,5.92-23.78,11.06-2.72-.87-5.41-1.84-8.06-2.88-10.1-8.16-20.59-13.99-31.3-17.37-3.95-2.99-7.63-6.17-11.05-9.51,2.76.94,6.49,3.15,7.83,3.68,3.93,1.57,7.92,3.02,11.94,4.35,7.88,2.61,15.91,4.77,24.03,6.46Z"/>
        <path class="cls-6" d="M359.42,275.9c-4.64,5.74-10.03,11.16-16.12,16.15-3.62.41-7.26,1.11-10.88,2.11-13.8,3.82-27.24,11.67-40.01,23.36-1.11.29-2.26.57-3.42.85-6.89-6.65-16.29-11.66-27.07-14.14,12.9-.83,25.74-2.76,38.31-5.77,18.2-4.36,35.87-11.03,52.34-19.93,2.11-1.15,4.52-2.34,6.85-2.63Z"/>
        <path class="cls-6" d="M95.85,322.88c-.82-.77-1.63-1.56-2.38-2.38-9.43-10.27-13.66-25.16-11.04-38.85.19-.99.43-2,.72-3,.56,1.43.92,3.03,1.36,4.03,2.29,5.2,5.82,9.84,10.14,13.52,4.31,3.67,9.44,6.41,14.95,7.77.75.19,1.51.35,2.28.48-2.11.14-3.98,1.04-5.51,2.4-.31.28-.61.57-.88.89-.03.03-.06.06-.08.1-4.19,4.38-7.4,9.54-9.56,15.04Z"/>
        <path class="cls-6" d="M192.37,351.83c1.29,6.37,4.4,12.27,8.9,17.38-16.97,5.33-35.15,10.09-53.78,10.09h-.37c-9.95-.03-34.37-2.06-46.12-20.12-7.86-12.07-6.98-29.04,1.09-42.16,0,.56.05,1.13.14,1.68.99,6.38,5.7,11.54,10.79,15.51,21.81,17.02,51.66,18.25,79.35,17.62Z"/>
        <path class="cls-6" d="M297.82,349.56c-2.87,19.78-24.83,35.22-51.4,35.22-24.96,0-45.84-13.62-50.68-31.67,31.79,15.69,71.45,14.31,102.08-3.55Z"/>
        <path class="cls-6" d="M400.11,326.46c3.65,11.14,2.79,23.4-3.27,32.72-11.75,18.06-36.17,20.09-46.12,20.12h-.37c-20.25,0-40.3-5.73-57.73-11.35,4.75-5.82,7.76-12.6,8.39-19.87,18.02,3.7,36.67,5.83,54.79,2.67,16.96-2.95,33.52-11.01,44.31-24.29Z"/>
        <path class="cls-6" d="M406.13,327.38c-.67.73-1.37,1.43-2.1,2.12-.46-1.98-1.05-3.94-1.77-5.86.11-.15.21-.3.32-.45-.36-.48-.72-.97-1.07-1.45-3.24-4.35-6.47-8.7-9.7-13.06.27-.21.54-.43.8-.65,9.89-8.12,16.7-19.78,19.29-32.29,2.66,3.87,4.44,8.43,5.27,12.79,2.62,13.69-1.62,28.58-11.04,38.85Z"/>
        <path class="cls-6" d="M268.9,246.43c1.19.49,1.15,2.37.21,3.25s-2.33,1.04-3.62,1.16c-3.12.28-6.25.56-9.37.84-3.97.36-8.5,1.44-12.46,1.07-3.24-.3-4.9-2.4-1.41-4.46,2.88-1.69,9.03-.84,12.33-1.04l14.32-.83Z"/>
      </g>
    </g>
  </g>
</svg>